<svg width="64" height="64" viewBox="0 0 64 64" fill="none" xmlns="http://www.w3.org/2000/svg">
<rect width="64" height="64" rx="32" fill="#E3E2FD"/>
<g clip-path="url(#clip0_15_2779)">
<path d="M51.1998 12.7818C51.1998 12.7818 51.049 16.9873 49.3014 21.9318L42.0498 14.6802C46.9943 12.9326 51.1998 12.7818 51.1998 12.7818Z" fill="#FF5249"/>
<path d="M42.0498 14.6803L49.3013 21.9318C48.1654 25.149 46.3521 28.6787 43.4662 31.5646C40.8068 34.224 37.6074 36.3529 34.2623 37.8286L26.153 29.7193C27.1405 27.481 28.5186 25.0927 30.3397 22.831C30.9772 22.0396 31.6686 21.2638 32.417 20.5154C35.3029 17.6295 38.8326 15.8162 42.0498 14.6803Z" fill="white"/>
<path d="M42.3608 21.6209C43.5811 22.8412 43.5811 24.8201 42.3608 26.0404C41.1404 27.2607 39.1623 27.2607 37.9412 26.0404C36.7209 24.8193 36.7209 22.8412 37.9412 21.6209C39.1615 20.4005 41.1404 20.4005 42.3608 21.6209Z" fill="#7BD8E8"/>
<path d="M41.256 33.774C45.2826 39.8138 37.7451 43.7177 33.5225 43.7177C35.7318 41.5083 35.0865 38.6529 35.0865 38.6529L34.2623 37.8286C36.5006 36.8411 38.8889 35.463 41.1506 33.6419L41.256 33.774Z" fill="#FF5249"/>
<path d="M25.2451 35.4411L25.1185 35.3146C24.7451 34.9404 24.5615 34.3982 24.6928 33.8857C25.0185 32.6169 25.4998 31.2013 26.1529 29.7193L34.2623 37.8286C32.7802 38.4818 31.3646 38.963 30.0959 39.2888C29.5834 39.42 29.0412 39.2365 28.667 38.863L28.5404 38.7365L25.2451 35.4411Z" fill="#FF5249"/>
<path d="M30.2076 22.7255L30.3397 22.831C28.5186 25.0927 27.1405 27.481 26.153 29.7193L25.3288 28.8951C25.3288 28.8951 22.4733 28.2498 20.2639 30.4591C20.2639 26.2365 24.1678 18.699 30.2076 22.7255Z" fill="#FF5249"/>
<path d="M25.2452 35.4411L28.5405 38.7365C28.3037 39.6732 27.742 40.6591 26.8928 41.5083C25.0623 43.3388 20.2639 43.7177 20.2639 43.7177C20.2639 43.7177 20.6428 38.9193 22.4733 37.0888C23.3225 36.2396 24.3084 35.6779 25.2452 35.4411Z" fill="#FFDD78"/>
<path d="M32.9896 32.1169C33.2943 31.8115 33.2943 31.3169 32.9896 31.0122C32.6842 30.7068 32.1896 30.7068 31.8842 31.0122C31.5795 31.3169 31.5795 31.8115 31.8842 32.1169C32.1896 32.4216 32.6842 32.4216 32.9896 32.1169Z" fill="black"/>
<path d="M42.9327 26.5928C44.4591 25.0664 44.4594 22.5951 42.9327 21.0684C41.4062 19.542 38.9349 19.5419 37.4083 21.0684C35.8857 22.591 35.8856 25.0691 37.4085 26.593C38.9316 28.1151 41.4098 28.1158 42.9327 26.5928ZM38.5132 22.1733C39.4291 21.2574 40.9119 21.2573 41.8279 22.1733C42.7437 23.0891 42.7439 24.572 41.8279 25.4879C40.9144 26.4015 39.4273 26.4015 38.5134 25.488C37.5997 24.5738 37.5996 23.0868 38.5132 22.1733Z" fill="black"/>
<path d="M19.9843 31.1808C20.081 31.2209 20.1825 31.2404 20.2832 31.2404C20.4865 31.2404 20.6863 31.1609 20.8357 31.0116C22.4047 29.4426 24.3399 29.5407 24.9721 29.6238L25.2457 29.8974C24.7073 31.1787 24.2735 32.4527 23.9554 33.6919C23.8406 34.1403 23.8793 34.6148 24.05 35.0489C23.2978 35.3955 22.5721 35.9045 21.9403 36.5364C19.9293 38.5475 19.5209 43.4486 19.5045 43.6562C19.4865 43.8841 19.5692 44.1085 19.7308 44.2701C19.8779 44.4172 20.0769 44.4989 20.2832 44.4989C20.3036 44.4989 20.3242 44.4982 20.3447 44.4965C20.5524 44.4802 25.4536 44.0718 27.4646 42.0608C28.0963 41.4292 28.6052 40.7036 28.9518 39.9515C29.4113 40.1322 29.8843 40.1545 30.3096 40.0455C31.5482 39.7275 32.8221 39.2939 34.1035 38.7554L34.3771 39.029C34.4602 39.6612 34.5583 41.5965 32.9894 43.1653C32.766 43.3887 32.6991 43.7247 32.8201 44.0166C32.9409 44.3086 33.2258 44.4989 33.5418 44.4989C36.634 44.4989 40.957 42.6574 42.5492 39.6823C43.2407 38.3904 43.7115 36.3465 42.2101 33.7958C42.8466 33.2578 43.4596 32.6953 44.0379 32.117C46.6176 29.5373 48.6427 26.198 50.0572 22.1921C51.8244 17.1923 51.9934 12.9864 51.9997 12.8098C52.0076 12.593 51.9248 12.3828 51.7715 12.2293C51.618 12.076 51.4086 11.9928 51.191 12.001C51.0143 12.0074 46.8085 12.1764 41.8089 13.9435C37.8027 15.3581 34.4634 17.3833 31.8838 19.963C31.3057 20.541 30.7432 21.154 30.205 21.7908C27.6544 20.2894 25.6105 20.7602 24.3184 21.4516C21.3433 23.0438 19.5018 27.367 19.5018 30.4591C19.5021 30.7751 19.6925 31.06 19.9843 31.1808ZM26.3598 40.9559C25.2856 42.0301 22.7657 42.5967 21.1729 42.828C21.4043 41.2352 21.971 38.7154 23.0451 37.6412C23.6467 37.0397 24.3442 36.5836 25.0453 36.3267L27.6743 38.9558C27.4174 39.6569 26.9614 40.3543 26.3598 40.9559ZM29.9215 38.5319C29.6954 38.5898 29.4335 38.5048 29.2388 38.3104C25.4466 34.5183 30.3146 39.3863 25.691 34.7626C25.4962 34.5674 25.4112 34.3056 25.4689 34.0799C25.7192 33.1054 26.0464 32.1055 26.4444 31.0961L32.9049 37.5566C31.8953 37.9547 30.8956 38.2819 29.9215 38.5319ZM41.1718 38.9451C40.1482 40.8575 37.571 42.2672 35.2224 42.7524C35.9713 41.3433 36.1363 39.5494 35.8627 38.4617C35.7992 38.209 35.6344 38.082 35.6252 38.0671C37.5184 37.1501 39.3112 36.0501 40.9756 34.7847C41.7887 36.2701 41.8556 37.6672 41.1718 38.9451ZM48.9778 20.4838L43.5172 15.0232C46.4922 14.0992 49.0804 13.7531 50.3723 13.6288C50.2479 14.9209 49.9018 17.5091 48.9778 20.4838ZM32.9889 21.0678C35.3034 18.7533 38.2904 16.9113 41.8694 15.5853L48.4157 22.1316C47.0899 25.7105 45.2479 28.6976 42.9332 31.0122C42.2292 31.7161 41.4712 32.3962 40.6801 33.0334C38.7784 34.5647 36.6852 35.8617 34.4521 36.8942L27.1068 29.5491C28.1393 27.3158 29.4363 25.2227 30.9674 23.3212C31.6052 22.5295 32.2852 21.7714 32.9889 21.0678ZM25.056 22.8292C26.334 22.1453 27.731 22.2124 29.2163 23.0254C27.9509 24.6896 26.8508 26.4826 25.9339 28.3759C25.9222 28.3687 25.7816 28.1919 25.5203 28.133C25.4129 28.1087 23.3458 27.6641 21.2485 28.7787C21.7339 26.4301 23.1435 23.8528 25.056 22.8292Z" fill="black"/>
<path d="M28.5702 47.5849L30.7796 45.3747C31.0846 45.0696 31.0845 44.5749 30.7794 44.2699C30.4742 43.9648 29.9795 43.965 29.6745 44.27L27.4652 46.4802C27.1602 46.7853 27.1602 47.28 27.4653 47.585C27.7705 47.89 28.2652 47.89 28.5702 47.5849Z" fill="black"/>
<path d="M17.5209 36.5358L19.7311 34.3265C20.0362 34.0215 20.0363 33.5268 19.7313 33.2216C19.4263 32.9165 18.9317 32.9165 18.6265 33.2215L16.4163 35.4308C16.1111 35.7358 16.1111 36.2305 16.4161 36.5357C16.721 36.8407 17.2156 36.841 17.5209 36.5358Z" fill="black"/>
<path d="M24.1506 45.3753L18.8584 50.6667C18.5532 50.9718 18.5532 51.4665 18.8583 51.7716C19.1632 52.0767 19.658 52.0768 19.9632 51.7717L25.2553 46.4803C25.5605 46.1752 25.5605 45.6805 25.2554 45.3754C24.9505 45.0703 24.4557 45.0703 24.1506 45.3753Z" fill="black"/>
<path d="M17.9006 45.3753L12.6084 50.6667C12.3032 50.9718 12.3032 51.4665 12.6083 51.7716C12.9132 52.0767 13.408 52.0768 13.7132 51.7717L19.0053 46.4803C19.3105 46.1752 19.3105 45.6805 19.0054 45.3754C18.7004 45.0703 18.2056 45.0703 17.9006 45.3753Z" fill="black"/>
<path d="M13.3343 45.1427L18.6257 39.8505C18.9308 39.5453 18.9308 39.0507 18.6256 38.7456C18.3206 38.4406 17.8259 38.4406 17.5208 38.7457L12.2294 44.0378C11.9243 44.343 11.9243 44.8376 12.2295 45.1428C12.5346 45.4478 13.0293 45.4478 13.3343 45.1427Z" fill="black"/>
<path d="M35.1991 29.9069L36.3038 28.8022C36.6088 28.4971 36.6088 28.0024 36.3038 27.6973C35.9986 27.3922 35.5041 27.3922 35.1989 27.6973L34.0942 28.8019C33.7891 29.107 33.7891 29.6017 34.0942 29.9069C34.3993 30.2119 34.8939 30.2119 35.1991 29.9069Z" fill="black"/>
</g>
<defs>
<clipPath id="clip0_15_2779">
<rect width="40" height="40" fill="white" transform="translate(12.0005 12.0005)"/>
</clipPath>
</defs>
</svg>
