<svg width="64" height="64" viewBox="0 0 64 64" fill="none" xmlns="http://www.w3.org/2000/svg">
<rect y="0.000488281" width="64" height="64" rx="32" fill="#E3E2FD"/>
<g clip-path="url(#clip0_15_2799)">
<path d="M48.4062 17.938V41.3755C48.4062 43.9646 46.3078 46.063 43.7188 46.063C43.7105 46.0531 20.2901 17.9485 20.2812 17.938C20.2812 15.3489 22.3797 13.2505 24.9688 13.2505H43.7188C46.3078 13.2505 48.4062 15.3489 48.4062 17.938Z" fill="#53E261"/>
<path d="M43.7188 22.6255V46.063C43.7188 48.6521 41.6203 50.7505 39.0312 50.7505H20.2812C17.6922 50.7505 15.5938 48.6521 15.5938 46.063V22.6255C15.5938 20.0364 17.6922 17.938 20.2812 17.938H39.0312C41.6203 17.938 43.7188 20.0364 43.7188 22.6255Z" fill="#FBF3F3"/>
<path d="M29.6562 30.8286C33.5398 30.8286 36.6875 33.9763 36.6875 37.8599C36.6875 40.0685 35.6695 42.0396 34.0766 43.3278H25.2359C23.643 42.0396 22.625 40.0685 22.625 37.8599C22.625 33.9763 25.7727 30.8286 29.6562 30.8286Z" fill="#4E4E88"/>
<path d="M29.6563 40.2036C31.6969 40.2036 33.4328 41.5075 34.0766 43.3278C32.8696 44.306 31.3313 44.8911 29.6563 44.8911C27.9813 44.8911 26.443 44.306 25.236 43.3278C25.8797 41.5075 27.6156 40.2036 29.6563 40.2036Z" fill="#80AAFF"/>
<path d="M29.6562 40.2036C30.9507 40.2036 32 39.1543 32 37.8599C32 36.5654 30.9507 35.5161 29.6562 35.5161C28.3618 35.5161 27.3125 36.5654 27.3125 37.8599C27.3125 39.1543 28.3618 40.2036 29.6562 40.2036Z" fill="#FFDDCE"/>
<path d="M29.6562 29.6567C25.133 29.6567 21.4531 33.3367 21.4531 37.8599C21.4531 42.3823 25.1329 46.063 29.6562 46.063C34.1784 46.063 37.8594 42.3835 37.8594 37.8599C37.8594 33.3367 34.1795 29.6567 29.6562 29.6567ZM26.7346 42.9356C27.3773 41.9779 28.467 41.3755 29.6562 41.3755C30.8455 41.3755 31.9352 41.9779 32.5779 42.9356C31.7172 43.433 30.7198 43.7192 29.6562 43.7192C28.5927 43.7192 27.5953 43.433 26.7346 42.9356ZM28.4844 37.8599C28.4844 37.2137 29.0101 36.688 29.6562 36.688C30.3024 36.688 30.8281 37.2137 30.8281 37.8599C30.8281 38.506 30.3024 39.0317 29.6562 39.0317C29.0101 39.0317 28.4844 38.506 28.4844 37.8599ZM34.3419 41.3738C33.8631 40.7376 33.2608 40.2084 32.5768 39.8145C32.9523 39.2552 33.1719 38.5828 33.1719 37.8599C33.1719 35.9213 31.5948 34.3442 29.6562 34.3442C27.7177 34.3442 26.1406 35.9213 26.1406 37.8599C26.1406 38.5828 26.3602 39.2552 26.7357 39.8145C26.0517 40.2084 25.4495 40.7376 24.9706 41.3738C24.2341 40.3941 23.7969 39.1771 23.7969 37.8599C23.7969 34.629 26.4254 32.0005 29.6562 32.0005C32.8871 32.0005 35.5156 34.629 35.5156 37.8599C35.5156 39.1771 35.0784 40.3941 34.3419 41.3738Z" fill="black"/>
<path d="M43.7188 12.0786H24.9688C22.1041 12.0786 19.7146 14.1456 19.2094 16.8661C16.4888 17.3713 14.4219 19.7608 14.4219 22.6255V46.063C14.4219 49.2938 17.0504 51.9224 20.2812 51.9224H39.0312C41.8959 51.9224 44.2854 49.8554 44.7906 47.1349C47.5112 46.6296 49.5781 44.2402 49.5781 41.3755V17.938C49.5781 14.7071 46.9496 12.0786 43.7188 12.0786ZM39.0312 49.5786H20.2812C18.3427 49.5786 16.7656 48.0015 16.7656 46.063V22.6255C16.7656 20.687 18.3427 19.1099 20.2812 19.1099H39.0312C40.9698 19.1099 42.5469 20.687 42.5469 22.6255V46.063C42.5469 48.0015 40.9698 49.5786 39.0312 49.5786ZM47.2344 41.3755C47.2344 42.9032 46.2546 44.2058 44.8906 44.6896V22.6255C44.8906 19.3946 42.2621 16.7661 39.0312 16.7661H21.6547C22.1384 15.4021 23.441 14.4224 24.9688 14.4224H43.7188C45.6573 14.4224 47.2344 15.9995 47.2344 17.938V41.3755Z" fill="black"/>
<path d="M36.6875 23.7974H22.625C21.9778 23.7974 21.4531 24.3221 21.4531 24.9692C21.4531 25.6164 21.9778 26.1411 22.625 26.1411H36.6875C37.3347 26.1411 37.8594 25.6164 37.8594 24.9692C37.8594 24.3221 37.3347 23.7974 36.6875 23.7974Z" fill="black"/>
</g>
<defs>
<clipPath id="clip0_15_2799">
<rect width="40" height="40" fill="white" transform="translate(12 12.0005)"/>
</clipPath>
</defs>
</svg>
