<svg width="30" height="30" viewBox="0 0 30 30" fill="none" xmlns="http://www.w3.org/2000/svg">
<path d="M23.4342 24.3736C23.1952 24.3736 22.9561 24.2798 22.7733 24.097L14.9967 16.3251L7.22017 24.097C6.85454 24.4626 6.25923 24.4626 5.8936 24.097C5.52798 23.7314 5.52798 23.1361 5.8936 22.7704L14.3311 14.3329C14.6967 13.9673 15.292 13.9673 15.6577 14.3329L24.0952 22.7704C24.4608 23.1361 24.4608 23.7314 24.0952 24.097C23.9124 24.2798 23.6733 24.3736 23.4342 24.3736Z" fill="#666876"/>
<path d="M23.4342 15.9361C23.1952 15.9361 22.9561 15.8423 22.7733 15.6595L14.9967 7.88762L7.22017 15.6595C6.85454 16.0251 6.25923 16.0251 5.8936 15.6595C5.52798 15.2939 5.52798 14.6986 5.8936 14.3329L14.3311 5.89543C14.6967 5.52981 15.292 5.52981 15.6577 5.89543L24.0952 14.3329C24.4608 14.6986 24.4608 15.2939 24.0952 15.6595C23.9124 15.8423 23.6733 15.9361 23.4342 15.9361Z" fill="#666876"/>
</svg>
