<svg width="138" height="31" viewBox="0 0 138 31" fill="none" xmlns="http://www.w3.org/2000/svg">
<path d="M47.1729 29.6477C46.3885 29.6477 45.7123 29.5205 45.1443 29.2661C44.5853 29.0026 44.0714 28.6073 43.6025 28.0803L44.982 26.7037C45.2886 27.0581 45.6267 27.3352 45.9963 27.5351C46.375 27.7259 46.8123 27.8213 47.3082 27.8213C47.759 27.8213 48.1061 27.7395 48.3495 27.576C48.602 27.4124 48.7282 27.1853 48.7282 26.8945C48.7282 26.631 48.6471 26.4175 48.4848 26.2539C48.3225 26.0903 48.1061 25.9495 47.8356 25.8314C47.5741 25.7133 47.2811 25.5997 46.9565 25.4906C46.641 25.3816 46.3254 25.2589 46.0098 25.1226C45.6943 24.9773 45.4013 24.8001 45.1308 24.5911C44.8693 24.373 44.6574 24.1049 44.4951 23.7869C44.3328 23.4598 44.2517 23.0509 44.2517 22.5602C44.2517 21.9696 44.3915 21.4608 44.671 21.0337C44.9595 20.6066 45.3562 20.2841 45.8611 20.066C46.366 19.8388 46.9475 19.7253 47.6057 19.7253C48.2729 19.7253 48.8815 19.8434 49.4315 20.0796C49.9905 20.3159 50.4503 20.6384 50.8109 21.0473L49.4315 22.4239C49.143 22.1241 48.8499 21.9015 48.5524 21.7561C48.2639 21.6107 47.9348 21.538 47.5651 21.538C47.1955 21.538 46.9024 21.6107 46.6861 21.7561C46.4697 21.8924 46.3615 22.0923 46.3615 22.3558C46.3615 22.6011 46.4426 22.801 46.6049 22.9555C46.7672 23.1009 46.9791 23.2281 47.2405 23.3371C47.511 23.4462 47.8041 23.5552 48.1196 23.6643C48.4442 23.7733 48.7643 23.9005 49.0798 24.0459C49.3954 24.1913 49.6839 24.3775 49.9454 24.6047C50.2159 24.8228 50.4323 25.1045 50.5945 25.4497C50.7568 25.7859 50.838 26.2039 50.838 26.7037C50.838 27.6214 50.5134 28.3438 49.8642 28.8708C49.2151 29.3887 48.318 29.6477 47.1729 29.6477Z" fill="#CD0404"/>
<path d="M53.5049 29.4978L51.2328 22.8737H53.2615L54.668 27.685L54.0729 27.6987L55.6282 22.8737H57.3052L58.874 27.6987L58.2654 27.685L59.6854 22.8737H61.7141L59.442 29.4978H57.7515L56.2233 24.9182H56.7372L55.1819 29.4978H53.5049Z" fill="#CD0404"/>
<path d="M65.1275 29.6341C64.5234 29.6341 63.9824 29.4842 63.5046 29.1843C63.0357 28.8844 62.6615 28.4756 62.382 27.9576C62.1116 27.4397 61.9763 26.8491 61.9763 26.1858C61.9763 25.5224 62.1116 24.9318 62.382 24.4139C62.6615 23.896 63.0357 23.4871 63.5046 23.1872C63.9824 22.8874 64.5234 22.7374 65.1275 22.7374C65.5692 22.7374 65.966 22.8238 66.3176 22.9964C66.6782 23.169 66.9713 23.4098 67.1967 23.7188C67.4221 24.0186 67.5483 24.3639 67.5753 24.7546V27.6169C67.5483 28.0076 67.4221 28.3574 67.1967 28.6664C66.9803 28.9662 66.6918 29.2025 66.3311 29.3751C65.9705 29.5478 65.5692 29.6341 65.1275 29.6341ZM65.5467 27.7532C65.9885 27.7532 66.3446 27.6078 66.6151 27.317C66.8856 27.0172 67.0208 26.6401 67.0208 26.1858C67.0208 25.8768 66.9577 25.6042 66.8315 25.368C66.7143 25.1317 66.543 24.95 66.3176 24.8228C66.1012 24.6865 65.8487 24.6183 65.5602 24.6183C65.2717 24.6183 65.0148 24.6865 64.7893 24.8228C64.573 24.95 64.3971 25.1317 64.2619 25.368C64.1357 25.6042 64.0726 25.8768 64.0726 26.1858C64.0726 26.4856 64.1357 26.7537 64.2619 26.9899C64.3881 27.2262 64.5639 27.4124 64.7893 27.5487C65.0148 27.685 65.2672 27.7532 65.5467 27.7532ZM66.9397 29.4978V27.7123L67.2508 26.104L66.9397 24.4957V22.8737H68.9683V29.4978H66.9397Z" fill="#CD0404"/>
<path d="M72.819 29.6613C72.4313 29.6613 72.0481 29.6114 71.6695 29.5114C71.2998 29.4115 70.9527 29.2706 70.6281 29.0889C70.3125 28.8981 70.0421 28.68 69.8167 28.4347L70.9933 27.2352C71.2096 27.4715 71.4666 27.6578 71.7641 27.7941C72.0617 27.9213 72.3862 27.9849 72.7379 27.9849C72.9813 27.9849 73.1661 27.9485 73.2924 27.8758C73.4276 27.8032 73.4952 27.7032 73.4952 27.576C73.4952 27.4124 73.4141 27.2898 73.2518 27.208C73.0985 27.1171 72.9002 27.0399 72.6567 26.9763C72.4133 26.9036 72.1563 26.8264 71.8859 26.7446C71.6154 26.6628 71.3584 26.5492 71.115 26.4038C70.8715 26.2584 70.6732 26.0585 70.5199 25.8041C70.3666 25.5406 70.29 25.209 70.29 24.8092C70.29 24.3821 70.3982 24.0141 70.6146 23.7051C70.831 23.3871 71.1375 23.1372 71.5342 22.9555C71.9309 22.7738 72.3953 22.6829 72.9272 22.6829C73.4862 22.6829 74.0001 22.7829 74.469 22.9828C74.9468 23.1736 75.3345 23.4598 75.6321 23.8414L74.4554 25.0409C74.2481 24.7955 74.0137 24.6229 73.7522 24.5229C73.4997 24.423 73.2518 24.373 73.0084 24.373C72.7739 24.373 72.5981 24.4093 72.4809 24.482C72.3637 24.5456 72.3051 24.6411 72.3051 24.7683C72.3051 24.9046 72.3817 25.0136 72.535 25.0954C72.6883 25.1772 72.8866 25.2498 73.1301 25.3135C73.3735 25.3771 73.6305 25.4543 73.901 25.5452C74.1714 25.636 74.4284 25.7587 74.6718 25.9132C74.9153 26.0676 75.1136 26.2766 75.2669 26.5401C75.4202 26.7946 75.4968 27.1308 75.4968 27.5487C75.4968 28.1939 75.2534 28.7073 74.7665 29.0889C74.2887 29.4705 73.6395 29.6613 72.819 29.6613Z" fill="#CD0404"/>
<path d="M77.5526 29.4978V20.1341H79.6218V29.4978H77.5526ZM76.0649 24.6456V22.8737H81.1095V24.6456H76.0649Z" fill="#CD0404"/>
<path d="M82.0212 29.4978V22.8737H84.0904V29.4978H82.0212ZM83.0625 21.9605C82.738 21.9605 82.4675 21.8515 82.2511 21.6334C82.0437 21.4063 81.94 21.1337 81.94 20.8156C81.94 20.4885 82.0437 20.2159 82.2511 19.9978C82.4675 19.7798 82.738 19.6707 83.0625 19.6707C83.3871 19.6707 83.6531 19.7798 83.8605 19.9978C84.0678 20.2159 84.1715 20.4885 84.1715 20.8156C84.1715 21.1337 84.0678 21.4063 83.8605 21.6334C83.6531 21.8515 83.3871 21.9605 83.0625 21.9605Z" fill="#CD0404"/>
<path d="M89.7535 29.4978L87.4544 26.0631L89.74 22.8737H92.0526L89.2937 26.4584L89.3613 25.5997L92.1879 29.4978H89.7535ZM85.5475 29.4978V19.6026H87.6167V29.4978H85.5475Z" fill="#CD0404"/>
<path d="M95.6951 29.4978V19.8752H97.8184V29.4978H95.6951Z" fill="#1E0074"/>
<path d="M101.997 29.4978L102.15 21.7425H104.179L104.12 29.4978H101.997ZM99.0081 21.7425V19.8752H107.109V21.7425H99.0081Z" fill="#1E0074"/>
<path d="M115.189 29.6477C114.477 29.6477 113.815 29.525 113.201 29.2797C112.597 29.0253 112.065 28.6709 111.606 28.2166C111.155 27.7623 110.803 27.2352 110.551 26.6355C110.298 26.0267 110.172 25.3725 110.172 24.6729C110.172 23.9732 110.298 23.3235 110.551 22.7238C110.803 22.115 111.155 21.588 111.606 21.1427C112.056 20.6975 112.584 20.3522 113.188 20.1069C113.801 19.8525 114.464 19.7253 115.176 19.7253C115.933 19.7253 116.605 19.8479 117.191 20.0933C117.786 20.3386 118.305 20.6748 118.746 21.1019L117.326 22.5466C117.074 22.274 116.767 22.0605 116.407 21.906C116.055 21.7515 115.645 21.6743 115.176 21.6743C114.761 21.6743 114.378 21.747 114.026 21.8924C113.684 22.0287 113.386 22.2286 113.134 22.4921C112.89 22.7556 112.697 23.0736 112.552 23.4462C112.417 23.8187 112.349 24.2276 112.349 24.6729C112.349 25.1272 112.417 25.5406 112.552 25.9132C112.697 26.2857 112.89 26.6037 113.134 26.8672C113.386 27.1308 113.684 27.3352 114.026 27.4806C114.378 27.626 114.761 27.6987 115.176 27.6987C115.663 27.6987 116.087 27.6214 116.447 27.467C116.808 27.3125 117.119 27.0989 117.38 26.8264L118.814 28.2711C118.354 28.6982 117.827 29.0344 117.232 29.2797C116.646 29.525 115.965 29.6477 115.189 29.6477Z" fill="url(#paint0_linear_15_2862)"/>
<path d="M119.794 29.4978V19.6026H121.863V29.4978H119.794Z" fill="url(#paint1_linear_15_2862)"/>
<path d="M126.241 29.6477C125.637 29.6477 125.101 29.525 124.632 29.2797C124.172 29.0253 123.812 28.68 123.55 28.2438C123.289 27.7986 123.158 27.2898 123.158 26.7173V22.8737H125.227V26.6901C125.227 26.9172 125.263 27.1126 125.335 27.2761C125.416 27.4397 125.534 27.5669 125.687 27.6578C125.84 27.7486 126.025 27.7941 126.241 27.7941C126.548 27.7941 126.791 27.6987 126.972 27.5078C127.152 27.3079 127.242 27.0353 127.242 26.6901V22.8737H129.311V26.7037C129.311 27.2852 129.181 27.7986 128.919 28.2438C128.658 28.68 128.297 29.0253 127.837 29.2797C127.377 29.525 126.845 29.6477 126.241 29.6477Z" fill="url(#paint2_linear_15_2862)"/>
<path d="M134.397 29.6341C133.956 29.6341 133.55 29.5432 133.18 29.3615C132.81 29.1707 132.508 28.9208 132.274 28.6119C132.04 28.2938 131.904 27.9394 131.868 27.5487V24.7546C131.904 24.3639 132.04 24.0186 132.274 23.7188C132.508 23.4098 132.81 23.169 133.18 22.9964C133.55 22.8238 133.956 22.7374 134.397 22.7374C135.019 22.7374 135.569 22.8874 136.047 23.1872C136.534 23.4871 136.913 23.896 137.183 24.4139C137.463 24.9318 137.603 25.5224 137.603 26.1858C137.603 26.8491 137.463 27.4397 137.183 27.9576C136.913 28.4756 136.534 28.8844 136.047 29.1843C135.569 29.4842 135.019 29.6341 134.397 29.6341ZM134.032 27.7532C134.321 27.7532 134.573 27.685 134.79 27.5487C135.015 27.4124 135.191 27.2262 135.317 26.9899C135.443 26.7537 135.506 26.4856 135.506 26.1858C135.506 25.8768 135.443 25.6042 135.317 25.368C135.191 25.1317 135.015 24.95 134.79 24.8228C134.573 24.6865 134.321 24.6183 134.032 24.6183C133.744 24.6183 133.487 24.6865 133.261 24.8228C133.036 24.95 132.86 25.1317 132.734 25.368C132.617 25.6042 132.558 25.8768 132.558 26.1858C132.558 26.4947 132.621 26.7673 132.747 27.0035C132.874 27.2398 133.045 27.4261 133.261 27.5624C133.487 27.6896 133.744 27.7532 134.032 27.7532ZM130.611 29.4978V19.6026H132.68V24.4957L132.342 26.104L132.653 27.7123V29.4978H130.611Z" fill="url(#paint3_linear_15_2862)"/>
<path d="M6.77844 14.5732C5.5167 14.5732 4.43426 14.3711 3.53111 13.9669C2.64125 13.5627 1.94397 12.9694 1.43927 12.187C0.947858 11.4047 0.675587 10.4333 0.622461 9.2728C0.60918 8.7382 0.602539 8.16448 0.602539 7.55164C0.602539 6.9388 0.60918 6.35204 0.622461 5.79136C0.675587 4.65695 0.954499 3.69858 1.4592 2.91623C1.96389 2.12084 2.66781 1.52104 3.57096 1.11683C4.4741 0.699578 5.54326 0.490952 6.77844 0.490952C7.65502 0.490952 8.4652 0.601784 9.20896 0.823449C9.95273 1.03208 10.6035 1.34501 11.1613 1.76227C11.7192 2.16648 12.1508 2.66197 12.4563 3.24873C12.775 3.82245 12.9411 4.4744 12.9544 5.2046C12.9676 5.32195 12.9278 5.41974 12.8348 5.49798C12.7551 5.57621 12.6555 5.61533 12.536 5.61533H9.84647C9.67381 5.61533 9.541 5.58273 9.44803 5.51753C9.35506 5.4393 9.27537 5.30239 9.20896 5.1068C9.02302 4.41573 8.71755 3.94632 8.29254 3.69858C7.88081 3.43779 7.36947 3.3074 6.75852 3.3074C6.02804 3.3074 5.45029 3.50951 5.02528 3.91372C4.60028 4.3049 4.36785 4.96337 4.328 5.88915C4.28816 6.95836 4.28816 8.05365 4.328 9.17501C4.36785 10.1008 4.60028 10.7658 5.02528 11.17C5.45029 11.5612 6.02804 11.7568 6.75852 11.7568C7.36947 11.7568 7.88745 11.6264 8.31246 11.3656C8.73747 11.1048 9.0363 10.6354 9.20896 9.95736C9.26209 9.76177 9.33514 9.63138 9.42811 9.56618C9.53436 9.48795 9.67381 9.44883 9.84647 9.44883H12.536C12.6555 9.44883 12.7551 9.48795 12.8348 9.56618C12.9278 9.64442 12.9676 9.74221 12.9544 9.85956C12.9411 10.5898 12.775 11.2482 12.4563 11.835C12.1508 12.4087 11.7192 12.9042 11.1613 13.3215C10.6035 13.7257 9.95273 14.0386 9.20896 14.2603C8.4652 14.4689 7.65502 14.5732 6.77844 14.5732Z" fill="white"/>
<path d="M20.2489 14.5732C18.9207 14.5732 17.8183 14.3907 16.9418 14.0256C16.0652 13.6474 15.4011 13.1585 14.9495 12.5587C14.498 11.9589 14.2589 11.3199 14.2323 10.6419C14.2323 10.5376 14.2722 10.4463 14.3519 10.3681C14.4448 10.2768 14.5511 10.2312 14.6706 10.2312H17.1808C17.3668 10.2312 17.5062 10.2638 17.5992 10.329C17.7054 10.3942 17.7984 10.4789 17.8781 10.5832C17.9844 10.7788 18.1305 10.9679 18.3164 11.1504C18.5156 11.333 18.768 11.4829 19.0734 11.6003C19.3922 11.7046 19.784 11.7568 20.2489 11.7568C21.0192 11.7568 21.5969 11.6394 21.9821 11.4047C22.3805 11.17 22.5798 10.8505 22.5798 10.4463C22.5798 10.1595 22.4735 9.92476 22.261 9.74221C22.0485 9.54662 21.7032 9.37712 21.225 9.23369C20.7602 9.07722 20.136 8.92075 19.3524 8.76428C18.343 8.55565 17.4797 8.28835 16.7625 7.96237C16.0585 7.62335 15.5206 7.18654 15.1488 6.65194C14.7769 6.1043 14.5909 5.42626 14.5909 4.61784C14.5909 3.82245 14.8167 3.11182 15.2683 2.48594C15.7331 1.86006 16.3773 1.37109 17.2008 1.01904C18.0242 0.66698 19.0004 0.490952 20.1293 0.490952C21.0457 0.490952 21.8493 0.608304 22.5399 0.843008C23.2438 1.07771 23.8349 1.39065 24.313 1.78182C24.7911 2.173 25.1497 2.59025 25.3888 3.03358C25.6412 3.46387 25.774 3.88764 25.7873 4.3049C25.7873 4.40921 25.7474 4.507 25.6677 4.59828C25.588 4.67651 25.4884 4.71563 25.3689 4.71563H22.7391C22.593 4.71563 22.4669 4.68955 22.3606 4.63739C22.2544 4.58524 22.1614 4.50048 22.0817 4.38313C22.002 4.09627 21.7895 3.84853 21.4442 3.6399C21.1122 3.41824 20.6739 3.3074 20.1293 3.3074C19.5449 3.3074 19.0867 3.41172 18.7547 3.62034C18.4359 3.81593 18.2766 4.12235 18.2766 4.5396C18.2766 4.80038 18.3629 5.02857 18.5355 5.22415C18.7215 5.41974 19.0203 5.58925 19.432 5.73268C19.8571 5.87611 20.4348 6.02606 21.1653 6.18253C22.3739 6.4042 23.3501 6.68454 24.0939 7.02355C24.8376 7.34953 25.3822 7.77982 25.7275 8.31443C26.0728 8.83599 26.2455 9.49447 26.2455 10.2899C26.2455 11.1765 25.9865 11.9458 25.4685 12.5978C24.9638 13.2367 24.2599 13.7257 23.3567 14.0647C22.4536 14.4037 21.4176 14.5732 20.2489 14.5732Z" fill="white"/>
<path d="M33.4396 14.5732C32.1114 14.5732 31.0091 14.3907 30.1325 14.0256C29.2559 13.6474 28.5918 13.1585 28.1403 12.5587C27.6887 11.9589 27.4496 11.3199 27.4231 10.6419C27.4231 10.5376 27.4629 10.4463 27.5426 10.3681C27.6356 10.2768 27.7418 10.2312 27.8613 10.2312H30.3715C30.5575 10.2312 30.6969 10.2638 30.7899 10.329C30.8962 10.3942 30.9891 10.4789 31.0688 10.5832C31.1751 10.7788 31.3212 10.9679 31.5071 11.1504C31.7063 11.333 31.9587 11.4829 32.2642 11.6003C32.5829 11.7046 32.9747 11.7568 33.4396 11.7568C34.2099 11.7568 34.7877 11.6394 35.1728 11.4047C35.5713 11.17 35.7705 10.8505 35.7705 10.4463C35.7705 10.1595 35.6642 9.92476 35.4517 9.74221C35.2392 9.54662 34.8939 9.37712 34.4158 9.23369C33.9509 9.07722 33.3267 8.92075 32.5431 8.76428C31.5337 8.55565 30.6704 8.28835 29.9532 7.96237C29.2493 7.62335 28.7114 7.18654 28.3395 6.65194C27.9676 6.1043 27.7817 5.42626 27.7817 4.61784C27.7817 3.82245 28.0074 3.11182 28.459 2.48594C28.9239 1.86006 29.568 1.37109 30.3915 1.01904C31.2149 0.66698 32.1911 0.490952 33.32 0.490952C34.2365 0.490952 35.04 0.608304 35.7306 0.843008C36.4346 1.07771 37.0256 1.39065 37.5037 1.78182C37.9819 2.173 38.3405 2.59025 38.5795 3.03358C38.8319 3.46387 38.9647 3.88764 38.978 4.3049C38.978 4.40921 38.9381 4.507 38.8584 4.59828C38.7788 4.67651 38.6791 4.71563 38.5596 4.71563H35.9299C35.7838 4.71563 35.6576 4.68955 35.5513 4.63739C35.4451 4.58524 35.3521 4.50048 35.2724 4.38313C35.1927 4.09627 34.9802 3.84853 34.6349 3.6399C34.3029 3.41824 33.8646 3.3074 33.32 3.3074C32.7357 3.3074 32.2774 3.41172 31.9454 3.62034C31.6267 3.81593 31.4673 4.12235 31.4673 4.5396C31.4673 4.80038 31.5536 5.02857 31.7263 5.22415C31.9122 5.41974 32.211 5.58925 32.6228 5.73268C33.0478 5.87611 33.6255 6.02606 34.356 6.18253C35.5646 6.4042 36.5408 6.68454 37.2846 7.02355C38.0283 7.34953 38.5729 7.77982 38.9182 8.31443C39.2635 8.83599 39.4362 9.49447 39.4362 10.2899C39.4362 11.1765 39.1772 11.9458 38.6592 12.5978C38.1545 13.2367 37.4506 13.7257 36.5475 14.0647C35.6443 14.4037 34.6084 14.5732 33.4396 14.5732Z" fill="white"/>
<path d="M51.3896 14.5732C50.1278 14.5732 49.0454 14.3711 48.1422 13.9669C47.2524 13.5627 46.5551 12.9694 46.0504 12.187C45.559 11.4047 45.2867 10.4333 45.2336 9.2728C45.2203 8.7382 45.2136 8.16448 45.2136 7.55164C45.2136 6.9388 45.2203 6.35204 45.2336 5.79136C45.2867 4.65695 45.5656 3.69858 46.0703 2.91623C46.575 2.12084 47.2789 1.52104 48.1821 1.11683C49.0852 0.699578 50.1544 0.490952 51.3896 0.490952C52.2661 0.490952 53.0763 0.601784 53.8201 0.823449C54.5638 1.03208 55.2146 1.34501 55.7724 1.76227C56.3303 2.16648 56.7619 2.66197 57.0674 3.24873C57.3862 3.82245 57.5522 4.4744 57.5655 5.2046C57.5787 5.32195 57.5389 5.41974 57.4459 5.49798C57.3662 5.57621 57.2666 5.61533 57.1471 5.61533H54.4576C54.2849 5.61533 54.1521 5.58273 54.0591 5.51753C53.9662 5.4393 53.8865 5.30239 53.8201 5.1068C53.6341 4.41573 53.3287 3.94632 52.9036 3.69858C52.4919 3.43779 51.9806 3.3074 51.3696 3.3074C50.6391 3.3074 50.0614 3.50951 49.6364 3.91372C49.2114 4.3049 48.979 4.96337 48.9391 5.88915C48.8993 6.95836 48.8993 8.05365 48.9391 9.17501C48.979 10.1008 49.2114 10.7658 49.6364 11.17C50.0614 11.5612 50.6391 11.7568 51.3696 11.7568C51.9806 11.7568 52.4986 11.6264 52.9236 11.3656C53.3486 11.1048 53.6474 10.6354 53.8201 9.95736C53.8732 9.76177 53.9462 9.63138 54.0392 9.56618C54.1455 9.48795 54.2849 9.44883 54.4576 9.44883H57.1471C57.2666 9.44883 57.3662 9.48795 57.4459 9.56618C57.5389 9.64442 57.5787 9.74221 57.5655 9.85956C57.5522 10.5898 57.3862 11.2482 57.0674 11.835C56.7619 12.4087 56.3303 12.9042 55.7724 13.3215C55.2146 13.7257 54.5638 14.0386 53.8201 14.2603C53.0763 14.4689 52.2661 14.5732 51.3896 14.5732Z" fill="url(#paint4_linear_15_2862)"/>
<path d="M59.9392 14.3776C59.7931 14.3776 59.6735 14.332 59.5806 14.2407C59.4876 14.1494 59.4411 14.0321 59.4411 13.8887V0.979918C59.4411 0.836488 59.4876 0.719136 59.5806 0.627863C59.6735 0.536588 59.7931 0.490952 59.9392 0.490952H62.29C62.4361 0.490952 62.5556 0.536588 62.6486 0.627863C62.7416 0.719136 62.788 0.836488 62.788 0.979918V13.8887C62.788 14.0321 62.7416 14.1494 62.6486 14.2407C62.5556 14.332 62.4361 14.3776 62.29 14.3776H59.9392Z" fill="url(#paint5_linear_15_2862)"/>
<path d="M68.2494 14.5732C67.5322 14.5732 66.888 14.4428 66.3169 14.182C65.7591 13.9082 65.3142 13.5431 64.9821 13.0867C64.6501 12.6304 64.4841 12.1153 64.4841 11.5416C64.4841 10.6158 64.8692 9.88564 65.6396 9.35104C66.4099 8.80339 67.4326 8.43178 68.7076 8.23619L71.1979 7.86458V7.59076C71.1979 7.12135 71.0983 6.76277 70.8991 6.51503C70.6998 6.26729 70.3346 6.14341 69.8033 6.14341C69.4314 6.14341 69.126 6.21513 68.8869 6.35856C68.6611 6.50199 68.4818 6.69758 68.349 6.94532C68.2295 7.11483 68.0635 7.19958 67.851 7.19958H65.6197C65.4736 7.19958 65.3607 7.16046 65.281 7.08223C65.2013 6.99096 65.1681 6.88664 65.1814 6.76929C65.1814 6.53459 65.2677 6.26728 65.4404 5.96738C65.6263 5.65445 65.9052 5.34803 66.2771 5.04813C66.649 4.74823 67.1271 4.50048 67.7115 4.3049C68.2959 4.10931 68.9998 4.01152 69.8233 4.01152C70.6866 4.01152 71.4237 4.10931 72.0346 4.3049C72.6456 4.50048 73.137 4.77431 73.5089 5.12636C73.894 5.47842 74.1796 5.89567 74.3655 6.37812C74.5515 6.84753 74.6444 7.36909 74.6444 7.94281V13.8887C74.6444 14.0321 74.5913 14.1494 74.4851 14.2407C74.3921 14.332 74.2792 14.3776 74.1464 14.3776H71.8354C71.6893 14.3776 71.5698 14.332 71.4768 14.2407C71.3838 14.1494 71.3373 14.0321 71.3373 13.8887V13.2041C71.1647 13.4518 70.9323 13.68 70.6401 13.8887C70.3479 14.0973 70.0026 14.2603 69.6041 14.3776C69.219 14.508 68.7674 14.5732 68.2494 14.5732ZM69.1857 12.3435C69.5709 12.3435 69.9162 12.2653 70.2217 12.1088C70.5405 11.9393 70.7862 11.685 70.9588 11.346C71.1448 10.994 71.2377 10.5572 71.2377 10.0356V9.76177L69.5443 10.0552C68.9201 10.1595 68.4619 10.3225 68.1697 10.5441C67.8908 10.7527 67.7513 11.0005 67.7513 11.2873C67.7513 11.509 67.8177 11.6981 67.9506 11.8546C68.0834 12.011 68.256 12.1349 68.4685 12.2262C68.681 12.3044 68.9201 12.3435 69.1857 12.3435Z" fill="url(#paint6_linear_15_2862)"/>
<path d="M81.1559 14.5732C80.2926 14.5732 79.5555 14.4819 78.9445 14.2994C78.3469 14.1038 77.8555 13.8691 77.4703 13.5953C77.0984 13.3215 76.8195 13.0411 76.6336 12.7542C76.4476 12.4543 76.348 12.2001 76.3347 11.9915C76.3215 11.848 76.3679 11.7307 76.4742 11.6394C76.5804 11.5351 76.6933 11.4829 76.8129 11.4829H79.084C79.1238 11.4829 79.1571 11.4895 79.1836 11.5025C79.2102 11.5155 79.25 11.5416 79.3031 11.5807C79.4758 11.672 79.6485 11.7894 79.8211 11.9328C79.9938 12.0632 80.193 12.1805 80.4188 12.2848C80.6446 12.3892 80.9168 12.4413 81.2356 12.4413C81.6075 12.4413 81.9196 12.3696 82.172 12.2262C82.4243 12.0827 82.5505 11.8676 82.5505 11.5807C82.5505 11.3721 82.4907 11.2026 82.3712 11.0722C82.2516 10.9288 82.0059 10.7919 81.6341 10.6615C81.2755 10.5311 80.7309 10.4007 80.0004 10.2703C79.3098 10.1138 78.7055 9.91172 78.1875 9.66398C77.6695 9.40319 77.2711 9.0707 76.9922 8.66648C76.7132 8.24923 76.5738 7.74723 76.5738 7.16046C76.5738 6.6389 76.7465 6.13689 77.0918 5.65445C77.4371 5.172 77.9418 4.78082 78.6059 4.48092C79.2699 4.16798 80.0868 4.01152 81.0563 4.01152C81.8266 4.01152 82.4907 4.10279 83.0485 4.28534C83.6196 4.45485 84.0978 4.67651 84.4829 4.95033C84.8814 5.22415 85.1802 5.5045 85.3794 5.79136C85.5787 6.07822 85.6849 6.339 85.6982 6.5737C85.7115 6.7041 85.6716 6.82145 85.5787 6.92576C85.4857 7.01703 85.3794 7.06267 85.2599 7.06267H83.188C83.1349 7.06267 83.0817 7.05615 83.0286 7.04311C82.9755 7.01703 82.929 6.99096 82.8892 6.96488C82.7298 6.88664 82.5704 6.78233 82.411 6.65194C82.2516 6.52155 82.0657 6.4042 81.8532 6.29988C81.6407 6.19557 81.3751 6.14341 81.0563 6.14341C80.6977 6.14341 80.4188 6.22165 80.2196 6.37812C80.0203 6.53459 79.9207 6.73669 79.9207 6.98444C79.9207 7.15395 79.9739 7.31041 80.0801 7.45385C80.1996 7.59728 80.4321 7.72767 80.7774 7.84502C81.136 7.96237 81.6872 8.09276 82.4309 8.23619C83.3474 8.37962 84.0779 8.61433 84.6224 8.94031C85.1669 9.25324 85.5521 9.62486 85.7779 10.0552C86.0037 10.4724 86.1166 10.9157 86.1166 11.3851C86.1166 12.011 85.924 12.5652 85.5388 13.0476C85.1669 13.5301 84.6091 13.9082 83.8653 14.182C83.1216 14.4428 82.2184 14.5732 81.1559 14.5732Z" fill="url(#paint7_linear_15_2862)"/>
<path d="M88.4023 14.3776C88.2562 14.3776 88.1367 14.332 88.0437 14.2407C87.9508 14.1494 87.9043 14.0321 87.9043 13.8887V0.979918C87.9043 0.836488 87.9508 0.719136 88.0437 0.627863C88.1367 0.536588 88.2562 0.490952 88.4023 0.490952H90.9524C91.0985 0.490952 91.218 0.536588 91.311 0.627863C91.404 0.719136 91.4504 0.836488 91.4504 0.979918V5.34151C91.809 4.93729 92.2473 4.61783 92.7653 4.38313C93.2966 4.13539 93.9075 4.01152 94.5982 4.01152C95.3685 4.01152 96.0525 4.18102 96.6502 4.52004C97.2611 4.85906 97.7392 5.36107 98.0846 6.02606C98.4299 6.67802 98.6025 7.47992 98.6025 8.43178V13.8887C98.6025 14.0321 98.5561 14.1494 98.4631 14.2407C98.3701 14.332 98.2506 14.3776 98.1045 14.3776H95.5345C95.4017 14.3776 95.2822 14.332 95.1759 14.2407C95.0829 14.1494 95.0365 14.0321 95.0365 13.8887V8.54913C95.0365 7.93629 94.8837 7.46688 94.5782 7.14091C94.286 6.80189 93.8478 6.63238 93.2634 6.63238C92.7188 6.63238 92.2805 6.80189 91.9485 7.14091C91.6165 7.46688 91.4504 7.93629 91.4504 8.54913V13.8887C91.4504 14.0321 91.404 14.1494 91.311 14.2407C91.218 14.332 91.0985 14.3776 90.9524 14.3776H88.4023Z" fill="url(#paint8_linear_15_2862)"/>
<path d="M31.074 28.5145C30.6664 28.5145 30.3244 28.4449 30.0478 28.3058C29.7785 28.1667 29.5566 27.991 29.3819 27.7788V28.1301C29.3819 28.2107 29.3528 28.2765 29.2946 28.3278C29.2436 28.379 29.1818 28.4046 29.109 28.4046H27.8755C27.7954 28.4046 27.7299 28.379 27.679 28.3278C27.628 28.2765 27.6025 28.2107 27.6025 28.1301V20.883C27.6025 20.8025 27.628 20.7366 27.679 20.6853C27.7299 20.6341 27.7954 20.6085 27.8755 20.6085H29.2073C29.2873 20.6085 29.3528 20.6341 29.4037 20.6853C29.4547 20.7366 29.4802 20.8025 29.4802 20.883V23.2328C29.6548 23.0425 29.8731 22.8888 30.1351 22.7716C30.4044 22.6472 30.7174 22.585 31.074 22.585C31.4378 22.585 31.758 22.6472 32.0346 22.7716C32.3184 22.8888 32.5586 23.0608 32.7551 23.2877C32.9516 23.5146 33.1044 23.7855 33.2136 24.1003C33.3227 24.4151 33.3846 24.7701 33.3991 25.1654C33.4064 25.3045 33.4101 25.4326 33.4101 25.5497C33.4101 25.6595 33.4064 25.7876 33.3991 25.934C33.3846 26.344 33.3191 26.71 33.2027 27.0321C33.0935 27.3469 32.9407 27.6177 32.7442 27.8446C32.5477 28.0643 32.3111 28.2326 32.0346 28.3497C31.758 28.4595 31.4378 28.5145 31.074 28.5145ZM30.4845 27.0431C30.7319 27.0431 30.9248 26.9918 31.063 26.8893C31.2013 26.7868 31.2996 26.6478 31.3578 26.4721C31.4233 26.2964 31.4633 26.1024 31.4779 25.8901C31.4924 25.6632 31.4924 25.4362 31.4779 25.2093C31.4633 24.997 31.4233 24.803 31.3578 24.6273C31.2996 24.4517 31.2013 24.3126 31.063 24.2101C30.9248 24.1076 30.7319 24.0564 30.4845 24.0564C30.2589 24.0564 30.0733 24.1076 29.9277 24.2101C29.7822 24.3052 29.673 24.4334 29.6002 24.5944C29.5275 24.7481 29.4874 24.9165 29.4802 25.0995C29.4729 25.2386 29.4692 25.374 29.4692 25.5058C29.4692 25.6376 29.4729 25.7766 29.4802 25.923C29.4874 26.1207 29.5238 26.3037 29.5893 26.4721C29.6548 26.6404 29.7603 26.7795 29.9059 26.8893C30.0515 26.9918 30.2443 27.0431 30.4845 27.0431Z" fill="#C6C6C6"/>
<path d="M35.3136 30.491C35.2481 30.491 35.1935 30.469 35.1499 30.4251C35.1062 30.3811 35.0844 30.3262 35.0844 30.2604C35.0844 30.2457 35.0844 30.2238 35.0844 30.1945C35.0916 30.1725 35.1026 30.1469 35.1171 30.1176L35.9686 28.0533L33.8726 23.0681C33.8508 23.0169 33.8399 22.9729 33.8399 22.9363C33.8545 22.8705 33.8836 22.8156 33.9272 22.7716C33.9709 22.7204 34.0255 22.6948 34.091 22.6948H35.3354C35.4301 22.6948 35.4992 22.7204 35.5429 22.7716C35.5938 22.8156 35.6265 22.8668 35.6411 22.9254L36.8965 26.1207L38.1737 22.9254C38.2028 22.8668 38.2392 22.8156 38.2829 22.7716C38.3338 22.7204 38.4066 22.6948 38.5012 22.6948H39.7238C39.7893 22.6948 39.8439 22.7204 39.8876 22.7716C39.9385 22.8156 39.964 22.8668 39.964 22.9254C39.964 22.962 39.9531 23.0095 39.9313 23.0681L36.8419 30.2604C36.8201 30.3189 36.7837 30.3702 36.7327 30.4141C36.6818 30.4653 36.609 30.491 36.5144 30.491H35.3136Z" fill="#C6C6C6"/>
<defs>
<linearGradient id="paint0_linear_15_2862" x1="61.8974" y1="-44.3331" x2="156.254" y2="-11.0746" gradientUnits="userSpaceOnUse">
<stop offset="0.2311" stop-color="#2B59FF"/>
<stop offset="1" stop-color="#BB2BFF"/>
</linearGradient>
<linearGradient id="paint1_linear_15_2862" x1="61.8974" y1="-44.3331" x2="156.254" y2="-11.0746" gradientUnits="userSpaceOnUse">
<stop offset="0.2311" stop-color="#2B59FF"/>
<stop offset="1" stop-color="#BB2BFF"/>
</linearGradient>
<linearGradient id="paint2_linear_15_2862" x1="61.8974" y1="-44.3331" x2="156.254" y2="-11.0746" gradientUnits="userSpaceOnUse">
<stop offset="0.2311" stop-color="#2B59FF"/>
<stop offset="1" stop-color="#BB2BFF"/>
</linearGradient>
<linearGradient id="paint3_linear_15_2862" x1="61.8974" y1="-44.3331" x2="156.254" y2="-11.0746" gradientUnits="userSpaceOnUse">
<stop offset="0.2311" stop-color="#2B59FF"/>
<stop offset="1" stop-color="#BB2BFF"/>
</linearGradient>
<linearGradient id="paint4_linear_15_2862" x1="19.6759" y1="-89.019" x2="123.141" y2="-61.8612" gradientUnits="userSpaceOnUse">
<stop offset="0.2311" stop-color="#2B59FF"/>
<stop offset="1" stop-color="#BB2BFF"/>
</linearGradient>
<linearGradient id="paint5_linear_15_2862" x1="19.6759" y1="-89.019" x2="123.141" y2="-61.8612" gradientUnits="userSpaceOnUse">
<stop offset="0.2311" stop-color="#2B59FF"/>
<stop offset="1" stop-color="#BB2BFF"/>
</linearGradient>
<linearGradient id="paint6_linear_15_2862" x1="19.6759" y1="-89.019" x2="123.141" y2="-61.8612" gradientUnits="userSpaceOnUse">
<stop offset="0.2311" stop-color="#2B59FF"/>
<stop offset="1" stop-color="#BB2BFF"/>
</linearGradient>
<linearGradient id="paint7_linear_15_2862" x1="19.6759" y1="-89.019" x2="123.141" y2="-61.8612" gradientUnits="userSpaceOnUse">
<stop offset="0.2311" stop-color="#2B59FF"/>
<stop offset="1" stop-color="#BB2BFF"/>
</linearGradient>
<linearGradient id="paint8_linear_15_2862" x1="19.6759" y1="-89.019" x2="123.141" y2="-61.8612" gradientUnits="userSpaceOnUse">
<stop offset="0.2311" stop-color="#2B59FF"/>
<stop offset="1" stop-color="#BB2BFF"/>
</linearGradient>
</defs>
</svg>
