<svg width="22" height="24" viewBox="0 0 22 24" fill="none" xmlns="http://www.w3.org/2000/svg">
<path d="M3.46362 17.4542H19.6362V8.61828C20.0544 8.52738 20.4453 8.40447 20.809 8.24957C21.1726 8.09467 21.509 7.89031 21.818 7.63651V17.4542C21.818 18.0542 21.6042 18.568 21.1766 18.9956C20.749 19.4232 20.2355 19.6367 19.6362 19.636H4.36361L0 23.9994V4.36393C0 3.76395 0.213817 3.25016 0.641451 2.82254C1.06908 2.39493 1.58254 2.18148 2.1818 2.18221H13.1999C13.1272 2.54583 13.0908 2.90945 13.0908 3.27307C13.0908 3.63669 13.1272 4.00031 13.1999 4.36393H2.1818V18.736L3.46362 17.4542ZM18.5453 6.54565C17.6363 6.54565 16.8635 6.22748 16.2272 5.59114C15.5908 4.95481 15.2726 4.18212 15.2726 3.27307C15.2726 2.36402 15.5908 1.59133 16.2272 0.954991C16.8635 0.318656 17.6363 0.000488281 18.5453 0.000488281C19.4544 0.000488281 20.2271 0.318656 20.8635 0.954991C21.4999 1.59133 21.818 2.36402 21.818 3.27307C21.818 4.18212 21.4999 4.95481 20.8635 5.59114C20.2271 6.22748 19.4544 6.54565 18.5453 6.54565Z" fill="#F9FBFD"/>
</svg>
