<svg width="21" height="20" viewBox="0 0 21 20" fill="none" xmlns="http://www.w3.org/2000/svg">
<g clip-path="url(#clip0_15_2846)">
<path d="M20.6025 10.0609C20.6025 4.50304 16.1267 0 10.6025 0C5.07835 0 0.602539 4.50304 0.602539 10.0609C0.602539 15.0913 4.23157 19.2698 9.02996 20V12.9817H6.48964V10.0609H9.02996V7.87018C9.02996 5.35497 10.5219 3.93509 12.7799 3.93509C13.909 3.93509 15.038 4.13793 15.038 4.13793V6.61258H13.788C12.538 6.61258 12.1348 7.38337 12.1348 8.19473V10.0609H14.917L14.4735 12.9817H12.1348V20C16.9331 19.2698 20.6025 15.0913 20.6025 10.0609Z" fill="white"/>
</g>
<defs>
<clipPath id="clip0_15_2846">
<rect width="20" height="20" fill="white" transform="translate(0.602539)"/>
</clipPath>
</defs>
</svg>
