<svg width="21" height="20" viewBox="0 0 21 20" fill="none" xmlns="http://www.w3.org/2000/svg">
<g clip-path="url(#clip0_15_2848)">
<mask id="mask0_15_2848" style="mask-type:luminance" maskUnits="userSpaceOnUse" x="0" y="0" width="21" height="20">
<path d="M20.6025 0H0.602539V20H20.6025V0Z" fill="white"/>
</mask>
<g mask="url(#mask0_15_2848)">
<path d="M10.6025 1.80078C13.2744 1.80078 13.5908 1.8125 14.6416 1.85937C15.6181 1.90234 16.1455 2.06641 16.497 2.20313C16.9619 2.38281 17.2978 2.60156 17.6455 2.94922C17.997 3.30078 18.2119 3.63281 18.3916 4.09766C18.5283 4.44922 18.6923 4.98047 18.7353 5.95312C18.7822 7.00781 18.7939 7.32422 18.7939 9.99219C18.7939 12.6641 18.7822 12.9805 18.7353 14.0313C18.6923 15.0078 18.5283 15.5352 18.3916 15.8867C18.2119 16.3516 17.9931 16.6875 17.6455 17.0352C17.2939 17.3867 16.9619 17.6016 16.497 17.7813C16.1455 17.918 15.6142 18.082 14.6416 18.125C13.5869 18.1719 13.2705 18.1836 10.6025 18.1836C7.93067 18.1836 7.61426 18.1719 6.56348 18.125C5.58692 18.082 5.05957 17.918 4.70801 17.7813C4.24317 17.6016 3.90723 17.3828 3.55957 17.0352C3.20801 16.6836 2.99317 16.3516 2.81348 15.8867C2.67676 15.5352 2.5127 15.0039 2.46973 14.0313C2.42285 12.9766 2.41113 12.6602 2.41113 9.99219C2.41113 7.32031 2.42285 7.00391 2.46973 5.95312C2.5127 4.97656 2.67676 4.44922 2.81348 4.09766C2.99317 3.63281 3.21192 3.29688 3.55957 2.94922C3.91113 2.59766 4.24317 2.38281 4.70801 2.20313C5.05957 2.06641 5.59082 1.90234 6.56348 1.85937C7.61426 1.8125 7.93067 1.80078 10.6025 1.80078ZM10.6025 0C7.8877 0 7.54785 0.0117187 6.48145 0.0585938C5.41895 0.105469 4.68848 0.277344 4.05567 0.523438C3.39551 0.78125 2.83692 1.12109 2.28223 1.67969C1.72363 2.23438 1.38379 2.79297 1.12598 3.44922C0.879883 4.08594 0.708008 4.8125 0.661133 5.875C0.614258 6.94531 0.602539 7.28516 0.602539 10C0.602539 12.7148 0.614258 13.0547 0.661133 14.1211C0.708008 15.1836 0.879883 15.9141 1.12598 16.5469C1.38379 17.207 1.72363 17.7656 2.28223 18.3203C2.83692 18.875 3.39551 19.2188 4.05176 19.4727C4.68848 19.7188 5.41504 19.8906 6.47754 19.9375C7.54395 19.9844 7.88379 19.9961 10.5986 19.9961C13.3134 19.9961 13.6533 19.9844 14.7197 19.9375C15.7822 19.8906 16.5127 19.7188 17.1455 19.4727C17.8017 19.2188 18.3603 18.875 18.915 18.3203C19.4697 17.7656 19.8134 17.207 20.0673 16.5508C20.3134 15.9141 20.4853 15.1875 20.5322 14.125C20.5791 13.0586 20.5908 12.7188 20.5908 10.0039C20.5908 7.28906 20.5791 6.94922 20.5322 5.88281C20.4853 4.82031 20.3134 4.08984 20.0673 3.45703C19.8213 2.79297 19.4814 2.23438 18.9228 1.67969C18.3681 1.125 17.8095 0.78125 17.1533 0.527344C16.5166 0.28125 15.79 0.109375 14.7275 0.0625C13.6572 0.0117188 13.3173 0 10.6025 0Z" fill="white"/>
<path d="M10.6025 4.86328C7.7666 4.86328 5.46582 7.16406 5.46582 10C5.46582 12.8359 7.7666 15.1367 10.6025 15.1367C13.4384 15.1367 15.7392 12.8359 15.7392 10C15.7392 7.16406 13.4384 4.86328 10.6025 4.86328ZM10.6025 13.332C8.7627 13.332 7.27051 11.8398 7.27051 10C7.27051 8.16016 8.7627 6.66797 10.6025 6.66797C12.4423 6.66797 13.9345 8.16016 13.9345 10C13.9345 11.8398 12.4423 13.332 10.6025 13.332Z" fill="white"/>
<path d="M17.1417 4.66016C17.1417 5.32422 16.6026 5.85938 15.9424 5.85938C15.2784 5.85938 14.7432 5.32031 14.7432 4.66016C14.7432 3.99609 15.2823 3.46094 15.9424 3.46094C16.6026 3.46094 17.1417 4 17.1417 4.66016Z" fill="white"/>
</g>
</g>
<defs>
<clipPath id="clip0_15_2848">
<rect width="20" height="20" fill="white" transform="translate(0.602539)"/>
</clipPath>
</defs>
</svg>
