<svg width="21" height="20" viewBox="0 0 21 20" fill="none" xmlns="http://www.w3.org/2000/svg">
<path d="M18.3168 1H2.84808C2.16504 1 1.60254 1.60268 1.60254 2.32589V17.7143C1.60254 18.4375 2.16504 19 2.84808 19H18.3168C18.9998 19 19.6025 18.4375 19.6025 17.7143V2.32589C19.6025 1.60268 18.9998 1 18.3168 1ZM7.02665 16.4286H4.37486V7.87054H7.02665V16.4286ZM5.70075 6.66518C4.81683 6.66518 4.13379 5.98214 4.13379 5.13839C4.13379 4.29464 4.81683 3.57143 5.70075 3.57143C6.5445 3.57143 7.22754 4.29464 7.22754 5.13839C7.22754 5.98214 6.5445 6.66518 5.70075 6.66518ZM17.0311 16.4286H14.3391V12.25C14.3391 11.2857 14.3391 10 12.973 10C11.5668 10 11.3659 11.0848 11.3659 12.2098V16.4286H8.71415V7.87054H11.2454V9.03571H11.2855C11.6471 8.35268 12.5311 7.62946 13.8168 7.62946C16.5088 7.62946 17.0311 9.4375 17.0311 11.7277V16.4286Z" fill="white"/>
</svg>
