<svg width="21" height="20" viewBox="0 0 21 20" fill="none" xmlns="http://www.w3.org/2000/svg">
<g clip-path="url(#clip0_15_2844)">
<path d="M18.5673 6.03131C19.3501 5.44423 20.0546 4.73973 20.6025 3.91781C19.898 4.23092 19.0761 4.46575 18.2542 4.54403C19.1152 4.03522 19.7414 3.25245 20.0546 2.27397C19.2718 2.74364 18.3716 3.09589 17.4714 3.29159C16.6886 2.46967 15.6319 2 14.4577 2C12.1876 2 10.3481 3.83953 10.3481 6.10959C10.3481 6.4227 10.3873 6.73581 10.4655 7.04892C7.06047 6.85323 4.00763 5.20939 1.9724 2.74364C1.62015 3.33072 1.42446 4.03522 1.42446 4.818C1.42446 6.22701 2.12896 7.47945 3.26399 8.22309C2.59863 8.18395 1.93326 8.0274 1.38532 7.71429V7.75342C1.38532 9.74951 2.79432 11.3933 4.67299 11.7847C4.35988 11.863 3.96849 11.9413 3.61624 11.9413C3.34227 11.9413 3.10743 11.9022 2.83346 11.863C3.34227 13.5068 4.86868 14.681 6.66908 14.7202C5.26007 15.816 3.49882 16.4814 1.58101 16.4814C1.22876 16.4814 0.915651 16.4423 0.602539 16.4031C2.40293 17.5773 4.55557 18.2427 6.90391 18.2427C14.4577 18.2427 18.5673 12.0196 18.5673 6.57926C18.5673 6.38356 18.5673 6.22701 18.5673 6.03131Z" fill="white"/>
</g>
<defs>
<clipPath id="clip0_15_2844">
<rect width="20" height="20" fill="white" transform="translate(0.602539)"/>
</clipPath>
</defs>
</svg>
