<svg width="217" height="48" viewBox="0 0 217 48" fill="none" xmlns="http://www.w3.org/2000/svg">
<path d="M73.7654 46.6788C72.5229 46.6788 71.4518 46.4795 70.5521 46.0809C69.6667 45.668 68.8527 45.0487 68.1101 44.2229L70.2951 42.066C70.7806 42.6212 71.3162 43.0554 71.9017 43.3687C72.5015 43.6676 73.1941 43.8171 73.9796 43.8171C74.6936 43.8171 75.2434 43.689 75.629 43.4327C76.0289 43.1765 76.2288 42.8205 76.2288 42.3649C76.2288 41.9521 76.1003 41.6175 75.8432 41.3612C75.5862 41.1049 75.2434 40.8843 74.815 40.6992C74.4009 40.5141 73.9367 40.3361 73.4226 40.1653C72.9228 39.9944 72.423 39.8022 71.9231 39.5887C71.4233 39.3609 70.9592 39.0833 70.5307 38.7558C70.1166 38.4141 69.781 37.9941 69.5239 37.4958C69.2669 36.9833 69.1383 36.3426 69.1383 35.5738C69.1383 34.6484 69.3597 33.8511 69.8024 33.1819C70.2594 32.5128 70.8877 32.0074 71.6875 31.6657C72.4872 31.3097 73.4083 31.1318 74.4508 31.1318C75.5076 31.1318 76.4716 31.3169 77.3427 31.687C78.2282 32.0572 78.9565 32.5626 79.5277 33.2033L77.3427 35.3602C76.8858 34.8904 76.4216 34.5416 75.9503 34.3138C75.4934 34.086 74.9721 33.9721 74.3866 33.9721C73.8011 33.9721 73.3369 34.086 72.9942 34.3138C72.6514 34.5274 72.4801 34.8406 72.4801 35.2535C72.4801 35.6379 72.6086 35.9511 72.8657 36.1931C73.1227 36.4209 73.4583 36.6202 73.8725 36.7911C74.3009 36.9619 74.765 37.1328 75.2649 37.3036C75.779 37.4745 76.286 37.6738 76.7858 37.9016C77.2856 38.1294 77.7426 38.4212 78.1568 38.7772C78.5852 39.1189 78.9279 39.5602 79.185 40.1012C79.442 40.628 79.5706 41.2829 79.5706 42.066C79.5706 43.5039 79.0565 44.6358 78.0282 45.4615C77 46.2731 75.579 46.6788 73.7654 46.6788Z" fill="#CD0404"/>
<path d="M83.7948 46.4439L80.196 36.065H83.4092L85.637 43.6036L84.6945 43.6249L87.1579 36.065H89.8142L92.2991 43.6249L91.3351 43.6036L93.5844 36.065H96.7976L93.1988 46.4439H90.5211L88.1005 39.2683H88.9145L86.451 46.4439H83.7948Z" fill="#CD0404"/>
<path d="M102.204 46.6575C101.247 46.6575 100.39 46.4226 99.6336 45.9527C98.891 45.4829 98.2983 44.8422 97.8556 44.0307C97.4272 43.2192 97.213 42.2938 97.213 41.2544C97.213 40.2151 97.4272 39.2897 97.8556 38.4782C98.2983 37.6667 98.891 37.026 99.6336 36.5562C100.39 36.0863 101.247 35.8514 102.204 35.8514C102.904 35.8514 103.532 35.9867 104.089 36.2572C104.66 36.5277 105.125 36.905 105.482 37.389C105.839 37.8589 106.039 38.3999 106.081 39.0121V43.4968C106.039 44.109 105.839 44.6571 105.482 45.1412C105.139 45.611 104.682 45.9812 104.111 46.2517C103.539 46.5222 102.904 46.6575 102.204 46.6575ZM102.868 43.7104C103.568 43.7104 104.132 43.4826 104.561 43.027C104.989 42.5571 105.203 41.9663 105.203 41.2544C105.203 40.7704 105.103 40.3433 104.903 39.9731C104.718 39.6029 104.446 39.3182 104.089 39.1189C103.747 38.9053 103.347 38.7985 102.89 38.7985C102.433 38.7985 102.026 38.9053 101.669 39.1189C101.326 39.3182 101.047 39.6029 100.833 39.9731C100.633 40.3433 100.533 40.7704 100.533 41.2544C100.533 41.7243 100.633 42.1443 100.833 42.5144C101.033 42.8846 101.312 43.1765 101.669 43.39C102.026 43.6036 102.426 43.7104 102.868 43.7104ZM105.075 46.4439V43.6463L105.567 41.1263L105.075 38.6063V36.065H108.288V46.4439H105.075Z" fill="#CD0404"/>
<path d="M114.387 46.7002C113.773 46.7002 113.166 46.6219 112.566 46.4653C111.981 46.3087 111.431 46.088 110.917 45.8032C110.417 45.5042 109.989 45.1626 109.632 44.7782L111.495 42.8988C111.838 43.269 112.245 43.5609 112.716 43.7744C113.188 43.9737 113.702 44.0734 114.259 44.0734C114.644 44.0734 114.937 44.0165 115.137 43.9026C115.351 43.7887 115.458 43.6321 115.458 43.4327C115.458 43.1765 115.33 42.9843 115.073 42.8561C114.83 42.7138 114.516 42.5927 114.13 42.4931C113.744 42.3792 113.337 42.2582 112.909 42.13C112.481 42.0019 112.074 41.8239 111.688 41.5961C111.302 41.3683 110.988 41.0551 110.745 40.6565C110.503 40.2436 110.381 39.7239 110.381 39.0975C110.381 38.4284 110.553 37.8517 110.895 37.3677C111.238 36.8694 111.724 36.4779 112.352 36.1931C112.98 35.9084 113.716 35.766 114.558 35.766C115.444 35.766 116.258 35.9226 117.001 36.2358C117.757 36.5348 118.371 36.9833 118.843 37.5812L116.979 39.4605C116.651 39.0761 116.279 38.8056 115.865 38.649C115.465 38.4924 115.073 38.4141 114.687 38.4141C114.316 38.4141 114.037 38.4711 113.852 38.585C113.666 38.6846 113.573 38.8341 113.573 39.0334C113.573 39.247 113.694 39.4178 113.937 39.546C114.18 39.6741 114.494 39.788 114.88 39.8877C115.265 39.9873 115.672 40.1083 116.101 40.2507C116.529 40.3931 116.936 40.5853 117.322 40.8273C117.707 41.0694 118.022 41.3968 118.264 41.8097C118.507 42.2083 118.629 42.7351 118.629 43.39C118.629 44.4009 118.243 45.2053 117.472 45.8032C116.715 46.4012 115.687 46.7002 114.387 46.7002Z" fill="#CD0404"/>
<path d="M121.885 46.4439V31.7725H125.162V46.4439H121.885ZM119.528 38.8412V36.065H127.519V38.8412H119.528Z" fill="#CD0404"/>
<path d="M128.963 46.4439V36.065H132.24V46.4439H128.963ZM130.612 34.6341C130.098 34.6341 129.67 34.4633 129.327 34.1216C128.998 33.7657 128.834 33.3385 128.834 32.8402C128.834 32.3277 128.998 31.9006 129.327 31.5589C129.67 31.2172 130.098 31.0464 130.612 31.0464C131.126 31.0464 131.548 31.2172 131.876 31.5589C132.205 31.9006 132.369 32.3277 132.369 32.8402C132.369 33.3385 132.205 33.7657 131.876 34.1216C131.548 34.4633 131.126 34.6341 130.612 34.6341Z" fill="#CD0404"/>
<path d="M141.21 46.4439L137.569 41.0622L141.189 36.065H144.852L140.482 41.6816L140.589 40.3361L145.066 46.4439H141.21ZM134.548 46.4439V30.9396H137.826V46.4439H134.548Z" fill="#CD0404"/>
<path d="M150.621 46.4439V31.3667H153.984V46.4439H150.621Z" fill="#1E0074"/>
<path d="M160.603 46.4439L160.846 34.2924H164.059L163.966 46.4439H160.603ZM155.869 34.2924V31.3667H168.7V34.2924H155.869Z" fill="#1E0074"/>
<path d="M181.499 46.6788C180.371 46.6788 179.321 46.4866 178.35 46.1022C177.393 45.7036 176.551 45.1483 175.822 44.4365C175.108 43.7246 174.551 42.8988 174.152 41.9592C173.752 41.0053 173.552 39.9802 173.552 38.8839C173.552 37.7877 173.752 36.7697 174.152 35.8301C174.551 34.8762 175.108 34.0504 175.822 33.3528C176.537 32.6552 177.372 32.1141 178.329 31.7297C179.3 31.3311 180.35 31.1318 181.478 31.1318C182.677 31.1318 183.741 31.324 184.67 31.7084C185.612 32.0928 186.433 32.6196 187.133 33.2887L184.884 35.5524C184.484 35.1253 183.998 34.7907 183.427 34.5487C182.87 34.3067 182.22 34.1857 181.478 34.1857C180.821 34.1857 180.214 34.2996 179.657 34.5274C179.114 34.7409 178.643 35.0541 178.243 35.467C177.857 35.8799 177.55 36.3782 177.322 36.9619C177.108 37.5456 177.001 38.1863 177.001 38.8839C177.001 39.5958 177.108 40.2436 177.322 40.8273C177.55 41.411 177.857 41.9094 178.243 42.3222C178.643 42.7351 179.114 43.0554 179.657 43.2832C180.214 43.511 180.821 43.6249 181.478 43.6249C182.249 43.6249 182.92 43.5039 183.491 43.2619C184.063 43.0199 184.555 42.6853 184.969 42.2582L187.24 44.5219C186.512 45.191 185.676 45.7178 184.734 46.1022C183.806 46.4866 182.727 46.6788 181.499 46.6788Z" fill="url(#paint0_linear_1_756)"/>
<path d="M188.792 46.4439V30.9396H192.07V46.4439H188.792Z" fill="url(#paint1_linear_1_756)"/>
<path d="M199.005 46.6788C198.048 46.6788 197.198 46.4866 196.455 46.1022C195.727 45.7036 195.156 45.1626 194.742 44.4792C194.328 43.7815 194.121 42.9843 194.121 42.0873V36.065H197.398V42.0446C197.398 42.4005 197.455 42.7066 197.569 42.9629C197.698 43.2192 197.884 43.4185 198.126 43.5609C198.369 43.7032 198.662 43.7744 199.005 43.7744C199.49 43.7744 199.876 43.6249 200.161 43.326C200.447 43.0127 200.59 42.5856 200.59 42.0446V36.065H203.867V42.066C203.867 42.9771 203.66 43.7815 203.246 44.4792C202.832 45.1626 202.261 45.7036 201.532 46.1022C200.804 46.4866 199.961 46.6788 199.005 46.6788Z" fill="url(#paint2_linear_1_756)"/>
<path d="M211.923 46.6575C211.223 46.6575 210.581 46.5151 209.995 46.2303C209.41 45.9314 208.931 45.5398 208.56 45.0558C208.189 44.5575 207.974 44.0022 207.917 43.39V39.0121C207.974 38.3999 208.189 37.8589 208.56 37.389C208.931 36.905 209.41 36.5277 209.995 36.2572C210.581 35.9867 211.223 35.8514 211.923 35.8514C212.909 35.8514 213.78 36.0863 214.537 36.5562C215.308 37.026 215.908 37.6667 216.336 38.4782C216.779 39.2897 217 40.2151 217 41.2544C217 42.2938 216.779 43.2192 216.336 44.0307C215.908 44.8422 215.308 45.4829 214.537 45.9527C213.78 46.4226 212.909 46.6575 211.923 46.6575ZM211.345 43.7104C211.802 43.7104 212.202 43.6036 212.544 43.39C212.901 43.1765 213.18 42.8846 213.38 42.5144C213.58 42.1443 213.68 41.7243 213.68 41.2544C213.68 40.7704 213.58 40.3433 213.38 39.9731C213.18 39.6029 212.901 39.3182 212.544 39.1189C212.202 38.9053 211.802 38.7985 211.345 38.7985C210.888 38.7985 210.481 38.9053 210.124 39.1189C209.767 39.3182 209.488 39.6029 209.288 39.9731C209.103 40.3433 209.01 40.7704 209.01 41.2544C209.01 41.7385 209.11 42.1656 209.31 42.5358C209.51 42.906 209.781 43.1978 210.124 43.4114C210.481 43.6107 210.888 43.7104 211.345 43.7104ZM205.925 46.4439V30.9396H209.203V38.6063L208.667 41.1263L209.16 43.6463V46.4439H205.925Z" fill="url(#paint3_linear_1_756)"/>
<path d="M9.78223 22.0648C7.78371 22.0648 6.06919 21.7482 4.63867 21.1148C3.22919 20.4815 2.12474 19.5519 1.32533 18.3261C0.546963 17.1003 0.115704 15.5782 0.0315556 13.7599C0.0105185 12.9222 0 12.0233 0 11.0631C0 10.1028 0.0105185 9.18347 0.0315556 8.30496C0.115704 6.52751 0.557482 5.02588 1.35689 3.80006C2.1563 2.5538 3.27126 1.614 4.70178 0.98066C6.1323 0.326887 7.82579 0 9.78223 0C11.1707 0 12.4539 0.173658 13.632 0.520976C14.8101 0.847861 15.8409 1.33819 16.7245 1.99196C17.608 2.62531 18.2917 3.40166 18.7756 4.32103C19.2805 5.21997 19.5434 6.24149 19.5645 7.38559C19.5855 7.56947 19.5224 7.72269 19.3751 7.84528C19.2489 7.96786 19.0911 8.02915 18.9018 8.02915H14.6418C14.3683 8.02915 14.1579 7.97807 14.0107 7.87592C13.8634 7.75334 13.7372 7.53882 13.632 7.23236C13.3375 6.14955 12.8536 5.41406 12.1805 5.02588C11.5283 4.61727 10.7184 4.41297 9.75068 4.41297C8.59364 4.41297 7.67853 4.72964 7.00534 5.36298C6.33216 5.97589 5.96401 7.00763 5.9009 8.45819C5.83778 10.1335 5.83778 11.8496 5.9009 13.6067C5.96401 15.0572 6.33216 16.0992 7.00534 16.7325C7.67853 17.3454 8.59364 17.6519 9.75068 17.6519C10.7184 17.6519 11.5388 17.4476 12.212 17.039C12.8852 16.6304 13.3585 15.8949 13.632 14.8325C13.7162 14.526 13.8319 14.3217 13.9791 14.2196C14.1474 14.097 14.3683 14.0357 14.6418 14.0357H18.9018C19.0911 14.0357 19.2489 14.097 19.3751 14.2196C19.5224 14.3421 19.5855 14.4954 19.5645 14.6792C19.5434 15.8234 19.2805 16.8551 18.7756 17.7745C18.2917 18.6734 17.608 19.4497 16.7245 20.1035C15.8409 20.7369 14.8101 21.2272 13.632 21.5745C12.4539 21.9014 11.1707 22.0648 9.78223 22.0648Z" fill="#1E0074"/>
<path d="M31.1185 22.0648C29.0148 22.0648 27.2687 21.7788 25.8803 21.2068C24.4918 20.6143 23.44 19.8481 22.7247 18.9083C22.0094 17.9685 21.6308 16.9675 21.5887 15.9051C21.5887 15.7416 21.6518 15.5986 21.778 15.476C21.9253 15.333 22.0936 15.2615 22.2829 15.2615H26.2589C26.5535 15.2615 26.7743 15.3126 26.9216 15.4147C27.0899 15.5169 27.2372 15.6497 27.3634 15.8131C27.5317 16.1196 27.7631 16.4158 28.0576 16.7019C28.3732 16.9879 28.7729 17.2228 29.2567 17.4067C29.7616 17.5702 30.3822 17.6519 31.1185 17.6519C32.3386 17.6519 33.2538 17.468 33.8638 17.1003C34.4949 16.7325 34.8105 16.232 34.8105 15.5986C34.8105 15.1491 34.6422 14.7814 34.3056 14.4954C33.969 14.1889 33.4221 13.9233 32.6647 13.6986C31.9284 13.4534 30.9397 13.2083 29.6985 12.9631C28.0997 12.6362 26.7323 12.2174 25.5963 11.7066C24.4813 11.1754 23.6293 10.491 23.0403 9.65337C22.4512 8.79529 22.1567 7.73291 22.1567 6.46622C22.1567 5.21997 22.5143 4.10651 23.2296 3.12585C23.9659 2.14519 24.9862 1.37905 26.2905 0.827431C27.5948 0.27581 29.141 0 30.9292 0C32.3807 0 33.6535 0.183874 34.7474 0.551621C35.8624 0.919369 36.7985 1.4097 37.5558 2.02261C38.3132 2.63552 38.8812 3.2893 39.2598 3.98393C39.6595 4.65813 39.8699 5.32212 39.8909 5.97589C39.8909 6.13934 39.8278 6.29257 39.7016 6.43558C39.5754 6.55816 39.4176 6.61945 39.2283 6.61945H35.0629C34.8315 6.61945 34.6317 6.57859 34.4634 6.49687C34.2951 6.41515 34.1478 6.28235 34.0216 6.09848C33.8954 5.64901 33.5588 5.26083 33.0118 4.93394C32.4859 4.58663 31.7917 4.41297 30.9292 4.41297C30.0035 4.41297 29.2778 4.57641 28.7518 4.9033C28.2469 5.20975 27.9945 5.68987 27.9945 6.34364C27.9945 6.75225 28.1312 7.10978 28.4047 7.41624C28.6992 7.72269 29.1726 7.98829 29.8247 8.21302C30.4979 8.43776 31.413 8.67271 32.5701 8.91787C34.4844 9.26519 36.0307 9.70444 37.2087 10.2356C38.3868 10.7464 39.2493 11.4206 39.7963 12.2582C40.3432 13.0755 40.6167 14.1072 40.6167 15.3535C40.6167 16.7427 40.2065 17.9481 39.3861 18.9696C38.5867 19.9707 37.4717 20.7369 36.0412 21.2681C34.6106 21.7992 32.9698 22.0648 31.1185 22.0648Z" fill="#1E0074"/>
<path d="M52.0117 22.0648C49.908 22.0648 48.162 21.7788 46.7735 21.2068C45.3851 20.6143 44.3332 19.8481 43.618 18.9083C42.9027 17.9685 42.524 16.9675 42.482 15.9051C42.482 15.7416 42.5451 15.5986 42.6713 15.476C42.8186 15.333 42.9868 15.2615 43.1762 15.2615H47.1522C47.4467 15.2615 47.6676 15.3126 47.8148 15.4147C47.9831 15.5169 48.1304 15.6497 48.2566 15.8131C48.4249 16.1196 48.6563 16.4158 48.9508 16.7019C49.2664 16.9879 49.6661 17.2228 50.15 17.4067C50.6549 17.5702 51.2754 17.6519 52.0117 17.6519C53.2319 17.6519 54.147 17.468 54.7571 17.1003C55.3882 16.7325 55.7037 16.232 55.7037 15.5986C55.7037 15.1491 55.5354 14.7814 55.1989 14.4954C54.8623 14.1889 54.3153 13.9233 53.558 13.6986C52.8217 13.4534 51.8329 13.2083 50.5917 12.9631C48.9929 12.6362 47.6255 12.2174 46.4895 11.7066C45.3745 11.1754 44.5225 10.491 43.9335 9.65337C43.3445 8.79529 43.05 7.73291 43.05 6.46622C43.05 5.21997 43.4076 4.10651 44.1228 3.12585C44.8591 2.14519 45.8794 1.37905 47.1837 0.827431C48.488 0.27581 50.0343 0 51.8224 0C53.274 0 54.5467 0.183874 55.6406 0.551621C56.7556 0.919369 57.6918 1.4097 58.4491 2.02261C59.2064 2.63552 59.7744 3.2893 60.1531 3.98393C60.5528 4.65813 60.7632 5.32212 60.7842 5.97589C60.7842 6.13934 60.7211 6.29257 60.5949 6.43558C60.4686 6.55816 60.3109 6.61945 60.1215 6.61945H55.9562C55.7248 6.61945 55.5249 6.57859 55.3566 6.49687C55.1883 6.41515 55.0411 6.28235 54.9149 6.09848C54.7886 5.64901 54.452 5.26083 53.9051 4.93394C53.3792 4.58663 52.6849 4.41297 51.8224 4.41297C50.8968 4.41297 50.171 4.57641 49.6451 4.9033C49.1402 5.20975 48.8877 5.68987 48.8877 6.34364C48.8877 6.75225 49.0245 7.10978 49.298 7.41624C49.5925 7.72269 50.0658 7.98829 50.718 8.21302C51.3912 8.43776 52.3063 8.67271 53.4633 8.91787C55.3777 9.26519 56.9239 9.70444 58.102 10.2356C59.2801 10.7464 60.1426 11.4206 60.6895 12.2582C61.2365 13.0755 61.51 14.1072 61.51 15.3535C61.51 16.7427 61.0998 17.9481 60.2793 18.9696C59.4799 19.9707 58.3649 20.7369 56.9344 21.2681C55.5039 21.7992 53.863 22.0648 52.0117 22.0648Z" fill="#1E0074"/>
<path d="M80.4433 22.0648C78.4448 22.0648 76.7303 21.7482 75.2998 21.1148C73.8903 20.4815 72.7858 19.5519 71.9864 18.3261C71.2081 17.1003 70.7768 15.5782 70.6927 13.7599C70.6716 12.9222 70.6611 12.0233 70.6611 11.0631C70.6611 10.1028 70.6716 9.18347 70.6927 8.30496C70.7768 6.52751 71.2186 5.02588 72.018 3.80006C72.8174 2.5538 73.9324 1.614 75.3629 0.98066C76.7934 0.326887 78.4869 0 80.4433 0C81.8318 0 83.115 0.173658 84.2931 0.520976C85.4712 0.847861 86.502 1.33819 87.3856 1.99196C88.2691 2.62531 88.9528 3.40166 89.4367 4.32103C89.9416 5.21997 90.2045 6.24149 90.2256 7.38559C90.2466 7.56947 90.1835 7.72269 90.0362 7.84528C89.91 7.96786 89.7522 8.02915 89.5629 8.02915H85.3029C85.0294 8.02915 84.819 7.97807 84.6718 7.87592C84.5245 7.75334 84.3983 7.53882 84.2931 7.23236C83.9986 6.14955 83.5147 5.41406 82.8416 5.02588C82.1894 4.61727 81.3795 4.41297 80.4118 4.41297C79.2547 4.41297 78.3396 4.72964 77.6664 5.36298C76.9933 5.97589 76.6251 7.00763 76.562 8.45819C76.4989 10.1335 76.4989 11.8496 76.562 13.6067C76.6251 15.0572 76.9933 16.0992 77.6664 16.7325C78.3396 17.3454 79.2547 17.6519 80.4118 17.6519C81.3795 17.6519 82.1999 17.4476 82.8731 17.039C83.5463 16.6304 84.0196 15.8949 84.2931 14.8325C84.3773 14.526 84.493 14.3217 84.6402 14.2196C84.8085 14.097 85.0294 14.0357 85.3029 14.0357H89.5629C89.7522 14.0357 89.91 14.097 90.0362 14.2196C90.1835 14.3421 90.2466 14.4954 90.2256 14.6792C90.2045 15.8234 89.9416 16.8551 89.4367 17.7745C88.9528 18.6734 88.2691 19.4497 87.3856 20.1035C86.502 20.7369 85.4712 21.2272 84.2931 21.5745C83.115 21.9014 81.8318 22.0648 80.4433 22.0648Z" fill="url(#paint4_linear_1_756)"/>
<path d="M93.9854 21.7584C93.754 21.7584 93.5646 21.6869 93.4174 21.5439C93.2701 21.4009 93.1965 21.217 93.1965 20.9922V0.76614C93.1965 0.541405 93.2701 0.357532 93.4174 0.21452C93.5646 0.0715064 93.754 0 93.9854 0H97.7089C97.9403 0 98.1297 0.0715064 98.2769 0.21452C98.4242 0.357532 98.4978 0.541405 98.4978 0.76614V20.9922C98.4978 21.217 98.4242 21.4009 98.2769 21.5439C98.1297 21.6869 97.9403 21.7584 97.7089 21.7584H93.9854Z" fill="url(#paint5_linear_1_756)"/>
<path d="M107.148 22.0648C106.012 22.0648 104.992 21.8605 104.087 21.4519C103.204 21.0229 102.499 20.4508 101.973 19.7358C101.447 19.0207 101.184 18.2137 101.184 17.3148C101.184 15.8642 101.794 14.7201 103.014 13.8825C104.235 13.0244 105.854 12.4421 107.874 12.1357L111.818 11.5534V11.1244C111.818 10.3889 111.661 9.82703 111.345 9.43885C111.03 9.05067 110.451 8.85658 109.61 8.85658C109.021 8.85658 108.537 8.96895 108.158 9.19368C107.8 9.41842 107.516 9.72487 107.306 10.1131C107.117 10.3786 106.854 10.5114 106.517 10.5114H102.983C102.751 10.5114 102.573 10.4502 102.446 10.3276C102.32 10.1846 102.268 10.0211 102.289 9.83724C102.289 9.46949 102.425 9.05067 102.699 8.58077C102.993 8.09044 103.435 7.61033 104.024 7.14043C104.613 6.67053 105.371 6.28235 106.296 5.97589C107.222 5.66944 108.337 5.51621 109.641 5.51621C111.009 5.51621 112.176 5.66944 113.144 5.97589C114.111 6.28235 114.89 6.71139 115.479 7.26301C116.089 7.81463 116.541 8.4684 116.836 9.22433C117.13 9.95982 117.278 10.777 117.278 11.676V20.9922C117.278 21.217 117.193 21.4009 117.025 21.5439C116.878 21.6869 116.699 21.7584 116.489 21.7584H112.828C112.597 21.7584 112.407 21.6869 112.26 21.5439C112.113 21.4009 112.039 21.217 112.039 20.9922V19.9196C111.766 20.3078 111.398 20.6654 110.935 20.9922C110.472 21.3191 109.925 21.5745 109.294 21.7584C108.684 21.9627 107.969 22.0648 107.148 22.0648ZM108.631 18.5712C109.241 18.5712 109.788 18.4487 110.272 18.2035C110.777 17.9379 111.166 17.5395 111.44 17.0083C111.734 16.4567 111.882 15.7723 111.882 14.9551V14.526L109.199 14.9857C108.211 15.1491 107.485 15.4045 107.022 15.7518C106.58 16.0787 106.359 16.4669 106.359 16.9164C106.359 17.2637 106.465 17.5599 106.675 17.8051C106.885 18.0503 107.159 18.2444 107.495 18.3874C107.832 18.5099 108.211 18.5712 108.631 18.5712Z" fill="url(#paint6_linear_1_756)"/>
<path d="M127.591 22.0648C126.224 22.0648 125.056 21.9218 124.089 21.6358C123.142 21.3293 122.364 20.9616 121.754 20.5326C121.165 20.1035 120.723 19.6643 120.428 19.2148C120.134 18.7449 119.976 18.3465 119.955 18.0196C119.934 17.7949 120.007 17.611 120.176 17.468C120.344 17.3046 120.523 17.2228 120.712 17.2228H124.31C124.373 17.2228 124.425 17.233 124.467 17.2535C124.509 17.2739 124.572 17.3148 124.657 17.3761C124.93 17.5191 125.204 17.7029 125.477 17.9277C125.751 18.132 126.066 18.3159 126.424 18.4793C126.781 18.6427 127.213 18.7245 127.718 18.7245C128.307 18.7245 128.801 18.6121 129.201 18.3874C129.6 18.1626 129.8 17.8255 129.8 17.3761C129.8 17.0492 129.706 16.7836 129.516 16.5793C129.327 16.3545 128.938 16.14 128.349 15.9357C127.781 15.7314 126.918 15.5271 125.761 15.3228C124.667 15.0776 123.71 14.761 122.89 14.3728C122.069 13.9642 121.438 13.4432 120.996 12.8099C120.554 12.1561 120.334 11.3695 120.334 10.4502C120.334 9.63294 120.607 8.84637 121.154 8.09044C121.701 7.33452 122.5 6.7216 123.552 6.2517C124.604 5.76137 125.898 5.51621 127.434 5.51621C128.654 5.51621 129.706 5.65922 130.589 5.94525C131.494 6.21084 132.251 6.55816 132.861 6.9872C133.492 7.41624 133.966 7.85549 134.281 8.30496C134.597 8.75443 134.765 9.16304 134.786 9.53079C134.807 9.73509 134.744 9.91896 134.597 10.0824C134.449 10.2254 134.281 10.2969 134.092 10.2969H130.81C130.726 10.2969 130.642 10.2867 130.558 10.2663C130.473 10.2254 130.4 10.1846 130.337 10.1437C130.084 10.0211 129.832 9.85767 129.579 9.65337C129.327 9.44906 129.032 9.26519 128.696 9.10175C128.359 8.9383 127.938 8.85658 127.434 8.85658C126.866 8.85658 126.424 8.97916 126.108 9.22433C125.793 9.46949 125.635 9.78617 125.635 10.1743C125.635 10.4399 125.719 10.6851 125.887 10.9098C126.077 11.1346 126.445 11.3389 126.992 11.5227C127.56 11.7066 128.433 11.9109 129.611 12.1357C131.062 12.3604 132.219 12.7281 133.082 13.2389C133.945 13.7292 134.555 14.3115 134.912 14.9857C135.27 15.6395 135.449 16.3341 135.449 17.0696C135.449 18.0503 135.144 18.9186 134.534 19.6745C133.945 20.4304 133.061 21.0229 131.883 21.4519C130.705 21.8605 129.274 22.0648 127.591 22.0648Z" fill="url(#paint7_linear_1_756)"/>
<path d="M139.069 21.7584C138.838 21.7584 138.648 21.6869 138.501 21.5439C138.354 21.4009 138.28 21.217 138.28 20.9922V0.76614C138.28 0.541405 138.354 0.357532 138.501 0.21452C138.648 0.0715064 138.838 0 139.069 0H143.108C143.34 0 143.529 0.0715064 143.676 0.21452C143.824 0.357532 143.897 0.541405 143.897 0.76614V7.60011C144.465 6.96677 145.159 6.46622 145.98 6.09848C146.821 5.7103 147.789 5.51621 148.883 5.51621C150.103 5.51621 151.187 5.78181 152.133 6.313C153.101 6.84419 153.858 7.63076 154.405 8.67271C154.952 9.69423 155.226 10.9507 155.226 12.4421V20.9922C155.226 21.217 155.152 21.4009 155.005 21.5439C154.857 21.6869 154.668 21.7584 154.437 21.7584H150.366C150.156 21.7584 149.966 21.6869 149.798 21.5439C149.651 21.4009 149.577 21.217 149.577 20.9922V12.626C149.577 11.6658 149.335 10.9303 148.851 10.4195C148.389 9.88832 147.694 9.62272 146.769 9.62272C145.906 9.62272 145.212 9.88832 144.686 10.4195C144.16 10.9303 143.897 11.6658 143.897 12.626V20.9922C143.897 21.217 143.824 21.4009 143.676 21.5439C143.529 21.6869 143.34 21.7584 143.108 21.7584H139.069Z" fill="url(#paint8_linear_1_756)"/>
<path d="M48.2644 44.9031C47.6189 44.9031 47.0771 44.7941 46.6391 44.5762C46.2126 44.3583 45.861 44.083 45.5844 43.7504V44.3009C45.5844 44.4271 45.5382 44.5303 45.446 44.6106C45.3653 44.6909 45.2674 44.7311 45.1521 44.7311H43.1982C43.0714 44.7311 42.9677 44.6909 42.887 44.6106C42.8063 44.5303 42.7659 44.4271 42.7659 44.3009V32.9457C42.7659 32.8195 42.8063 32.7163 42.887 32.636C42.9677 32.5557 43.0714 32.5156 43.1982 32.5156H45.3077C45.4345 32.5156 45.5382 32.5557 45.6189 32.636C45.6996 32.7163 45.74 32.8195 45.74 32.9457V36.6276C46.0166 36.3293 46.3624 36.0885 46.7774 35.9049C47.2039 35.71 47.6996 35.6125 48.2644 35.6125C48.8408 35.6125 49.348 35.71 49.786 35.9049C50.2356 36.0885 50.616 36.358 50.9272 36.7136C51.2385 37.0691 51.4805 37.4935 51.6535 37.9867C51.8264 38.4799 51.9243 39.0362 51.9474 39.6556C51.9589 39.8735 51.9647 40.0743 51.9647 40.2578C51.9647 40.4298 51.9589 40.6306 51.9474 40.86C51.9243 41.5023 51.8206 42.0758 51.6362 42.5805C51.4633 43.0737 51.2212 43.498 50.9099 43.8536C50.5987 44.1977 50.2241 44.4615 49.786 44.645C49.348 44.8171 48.8408 44.9031 48.2644 44.9031ZM47.3307 42.5977C47.7227 42.5977 48.0281 42.5174 48.2472 42.3568C48.4662 42.1962 48.6218 41.9783 48.714 41.703C48.8178 41.4277 48.8811 41.1238 48.9042 40.7911C48.9273 40.4356 48.9273 40.08 48.9042 39.7244C48.8811 39.3918 48.8178 39.0879 48.714 38.8126C48.6218 38.5373 48.4662 38.3194 48.2472 38.1588C48.0281 37.9982 47.7227 37.9179 47.3307 37.9179C46.9734 37.9179 46.6794 37.9982 46.4489 38.1588C46.2184 38.3079 46.0454 38.5086 45.9302 38.761C45.8149 39.0018 45.7515 39.2656 45.74 39.5524C45.7285 39.7703 45.7227 39.9825 45.7227 40.189C45.7227 40.3954 45.7285 40.6134 45.74 40.8428C45.7515 41.1524 45.8091 41.4392 45.9129 41.703C46.0166 41.9668 46.1838 42.1847 46.4143 42.3568C46.6449 42.5174 46.9503 42.5977 47.3307 42.5977Z" fill="#777580"/>
<path d="M54.9798 48C54.876 48 54.7896 47.9656 54.7204 47.8968C54.6513 47.8279 54.6167 47.7419 54.6167 47.6387C54.6167 47.6158 54.6167 47.5813 54.6167 47.5355C54.6282 47.5011 54.6455 47.4609 54.6686 47.415L56.0172 44.1805L52.6974 36.3695C52.6628 36.2892 52.6455 36.2204 52.6455 36.163C52.6686 36.0598 52.7147 35.9738 52.7838 35.9049C52.853 35.8247 52.9395 35.7845 53.0432 35.7845H55.0144C55.1642 35.7845 55.2737 35.8247 55.3429 35.9049C55.4236 35.9738 55.4755 36.0541 55.4985 36.1458L57.487 41.1524L59.51 36.1458C59.5561 36.0541 59.6137 35.9738 59.6829 35.9049C59.7636 35.8247 59.8789 35.7845 60.0287 35.7845H61.9653C62.069 35.7845 62.1555 35.8247 62.2247 35.9049C62.3053 35.9738 62.3457 36.0541 62.3457 36.1458C62.3457 36.2032 62.3284 36.2777 62.2938 36.3695L57.4005 47.6387C57.3659 47.7305 57.3083 47.8107 57.2276 47.8796C57.1469 47.9599 57.0316 48 56.8818 48H54.9798Z" fill="#777580"/>
<defs>
<linearGradient id="paint0_linear_1_756" x1="97.0879" y1="-69.2383" x2="246.181" y2="-16.1134" gradientUnits="userSpaceOnUse">
<stop offset="0.2311" stop-color="#2B59FF"/>
<stop offset="1" stop-color="#BB2BFF"/>
</linearGradient>
<linearGradient id="paint1_linear_1_756" x1="97.0879" y1="-69.2383" x2="246.181" y2="-16.1134" gradientUnits="userSpaceOnUse">
<stop offset="0.2311" stop-color="#2B59FF"/>
<stop offset="1" stop-color="#BB2BFF"/>
</linearGradient>
<linearGradient id="paint2_linear_1_756" x1="97.0879" y1="-69.2383" x2="246.181" y2="-16.1134" gradientUnits="userSpaceOnUse">
<stop offset="0.2311" stop-color="#2B59FF"/>
<stop offset="1" stop-color="#BB2BFF"/>
</linearGradient>
<linearGradient id="paint3_linear_1_756" x1="97.0879" y1="-69.2383" x2="246.181" y2="-16.1134" gradientUnits="userSpaceOnUse">
<stop offset="0.2311" stop-color="#2B59FF"/>
<stop offset="1" stop-color="#BB2BFF"/>
</linearGradient>
<linearGradient id="paint4_linear_1_756" x1="30.2109" y1="-140.249" x2="193.861" y2="-96.8253" gradientUnits="userSpaceOnUse">
<stop offset="0.2311" stop-color="#2B59FF"/>
<stop offset="1" stop-color="#BB2BFF"/>
</linearGradient>
<linearGradient id="paint5_linear_1_756" x1="30.2109" y1="-140.249" x2="193.861" y2="-96.8253" gradientUnits="userSpaceOnUse">
<stop offset="0.2311" stop-color="#2B59FF"/>
<stop offset="1" stop-color="#BB2BFF"/>
</linearGradient>
<linearGradient id="paint6_linear_1_756" x1="30.2109" y1="-140.249" x2="193.861" y2="-96.8253" gradientUnits="userSpaceOnUse">
<stop offset="0.2311" stop-color="#2B59FF"/>
<stop offset="1" stop-color="#BB2BFF"/>
</linearGradient>
<linearGradient id="paint7_linear_1_756" x1="30.2109" y1="-140.249" x2="193.861" y2="-96.8253" gradientUnits="userSpaceOnUse">
<stop offset="0.2311" stop-color="#2B59FF"/>
<stop offset="1" stop-color="#BB2BFF"/>
</linearGradient>
<linearGradient id="paint8_linear_1_756" x1="30.2109" y1="-140.249" x2="193.861" y2="-96.8253" gradientUnits="userSpaceOnUse">
<stop offset="0.2311" stop-color="#2B59FF"/>
<stop offset="1" stop-color="#BB2BFF"/>
</linearGradient>
</defs>
</svg>
