<svg width="64" height="64" viewBox="0 0 64 64" fill="none" xmlns="http://www.w3.org/2000/svg">
<rect y="0.000488281" width="64" height="64" rx="32" fill="#E3E2FD"/>
<g clip-path="url(#clip0_15_2813)">
<path d="M52 35.0234C52 35.0234 51.8486 30.7003 50.5408 28.7571C50.5408 28.7571 50.166 28.2483 49.2801 27.9083C49.2801 27.9083 49.2081 27.886 49.0915 27.8488C48.3048 27.479 47.5553 27.2432 47.5553 27.2432C47.394 27.1886 47.25 27.1291 47.1235 27.0745C46.5874 26.8114 46.1432 26.5111 46.0514 26.2332C46.0514 26.2332 46.0985 26.0818 45.9447 25.918C46.6023 25.171 47.0788 24.2131 47.2351 23.2949C47.3667 23.1609 47.4982 22.9425 47.5578 22.5975C47.662 22.2104 47.796 21.5403 47.5602 21.2276C47.5454 21.2127 47.5329 21.1953 47.5181 21.1829C47.7389 20.3739 48.0218 18.6988 47.0192 17.5597C46.9299 17.4455 46.3665 16.773 45.1654 16.4181L44.5921 16.2195C43.6466 15.9267 43.0485 15.8622 43.0287 15.8597C42.984 15.8547 42.9418 15.8597 42.8971 15.8696C42.8649 15.8796 42.7557 15.9118 42.6663 15.8969C42.4405 15.8647 42.1005 15.9813 42.0409 16.0036C41.964 16.0359 40.1325 16.768 39.5766 18.4754C39.527 18.6119 39.3012 19.3366 39.599 21.1159C39.5543 21.1482 39.5146 21.1829 39.4774 21.2276C39.2416 21.5403 39.3756 22.2128 39.4848 22.5975C39.5369 22.9375 39.6709 23.1559 39.8 23.2924C39.9464 24.2727 40.4179 25.2107 41.0383 25.9329C40.9143 26.0545 40.8746 26.1538 40.8621 26.2009V26.1885L40.8547 26.2233C40.7579 26.5285 40.2417 26.8487 39.6511 27.1316C39.4774 26.6253 39.2788 26.1439 39.0232 25.7666C39.0232 25.7666 38.6509 25.2554 37.765 24.9154C37.765 24.9154 37.6905 24.8931 37.5739 24.8559C36.7872 24.4836 36.0402 24.2478 36.0402 24.2478C35.8789 24.1932 35.7374 24.1337 35.6084 24.0791C35.0748 23.816 34.6306 23.5157 34.5363 23.2353C34.5363 23.2353 34.5834 23.0839 34.4296 22.9201C35.0872 22.1731 35.5662 21.2152 35.7201 20.297C35.8516 20.1654 35.9831 19.9446 36.0427 19.5996C36.1519 19.2125 36.2834 18.5399 36.0476 18.2297C36.0352 18.2148 36.0228 18.1975 36.0055 18.1851C36.2263 17.376 36.5092 15.7009 35.5091 14.5643C35.4198 14.4501 34.8564 13.7751 33.6528 13.4202L33.0795 13.2217C32.1365 12.9288 31.5384 12.8643 31.5161 12.8618C31.4714 12.8568 31.4292 12.8618 31.3845 12.8717C31.3548 12.8841 31.2431 12.9114 31.1537 12.899C30.9279 12.8693 30.5904 12.9834 30.5284 13.0057C30.4514 13.038 28.6199 13.7701 28.064 15.4775C28.0144 15.614 27.7886 16.3387 28.0839 18.118C28.0417 18.1503 27.9995 18.1875 27.9648 18.2297C27.729 18.5399 27.863 19.2125 27.9697 19.5971C28.0218 19.9396 28.1583 20.1555 28.2849 20.292C28.4288 21.2723 28.9004 22.2104 29.5233 22.9325C29.4017 23.0492 29.362 23.1509 29.3471 23.1981L29.3446 23.1931L29.3371 23.2254C29.0915 24.0046 26.1109 24.908 26.1109 24.908C25.2225 25.2504 24.8502 25.7592 24.8502 25.7592C24.6021 26.124 24.411 26.5831 24.2397 27.072C24.2348 27.0695 24.2298 27.0695 24.2248 27.067C23.6913 26.804 23.2471 26.5037 23.1527 26.2233C23.1527 26.2233 23.1999 26.0719 23.046 25.9081C23.7037 25.1611 24.1802 24.2032 24.3365 23.2849C24.468 23.1509 24.5996 22.9325 24.6591 22.5876C24.7683 22.2004 24.8999 21.5304 24.6641 21.2152C24.6517 21.2003 24.6393 21.1829 24.6244 21.1705C24.8453 20.3615 25.1282 18.6864 24.1256 17.5473C24.0338 17.4356 23.4729 16.763 22.2693 16.4106L21.6935 16.2121C20.7505 15.9193 20.1524 15.8547 20.13 15.8523C20.0854 15.8473 20.0432 15.8523 20.001 15.8622C19.9687 15.8721 19.8571 15.9019 19.7702 15.887C19.5444 15.8572 19.2044 15.9714 19.1423 15.9937C19.0654 16.0285 17.2339 16.763 16.678 18.468C16.6259 18.6069 16.4025 19.3291 16.7003 21.1085C16.6532 21.1408 16.616 21.178 16.5812 21.2202C16.3455 21.5329 16.477 22.2029 16.5837 22.5901C16.6383 22.9301 16.7698 23.1484 16.9014 23.2849C17.0503 24.2652 17.5218 25.2033 18.1422 25.9255C18.0206 26.0446 17.9759 26.1463 17.9635 26.1935V26.1885L17.9536 26.2183C17.7054 26.9976 14.7274 27.9009 14.7274 27.9009C13.8389 28.2409 13.4617 28.7546 13.4617 28.7546C12.1539 30.6978 12 35.0209 12 35.0209C12.0124 35.7753 12.9927 47.7495 22.2941 51.142C22.4455 49.4172 22.8723 46.1985 24.0412 44.4662C24.0412 44.4662 24.5102 43.8259 25.6171 43.4016C25.6171 43.4016 29.357 42.2724 29.6622 41.2971L29.6697 41.2524L29.6747 41.2574C29.6895 41.2003 29.7392 41.0737 29.8955 40.9224C29.1187 40.0165 28.5281 38.8477 28.3494 37.6143C28.1856 37.4455 28.0194 37.1725 27.9499 36.7506C27.8134 36.2617 27.6471 35.4204 27.9424 35.0333C27.9871 34.9812 28.0367 34.9266 28.0913 34.8943C27.7216 32.6608 27.9995 31.755 28.064 31.5837C28.7639 29.4445 31.057 28.5263 31.1537 28.4891C31.2282 28.4568 31.655 28.3129 31.938 28.355C32.0496 28.3675 32.1911 28.3302 32.2283 28.3203C32.2854 28.3029 32.3375 28.3005 32.3896 28.3054C32.4219 28.3079 33.1689 28.3873 34.3477 28.7571L35.0699 29.0028C36.5738 29.4495 37.2761 30.2858 37.3878 30.4322C38.646 31.8592 38.2961 33.9562 38.0206 34.9663C38.038 34.9861 38.0529 35.0085 38.0702 35.0234C38.3631 35.418 38.2018 36.2568 38.0628 36.7457C37.9908 37.175 37.8221 37.4455 37.6632 37.6093C37.4647 38.7682 36.8691 39.9669 36.0402 40.9025C36.2313 41.111 36.1742 41.2971 36.1742 41.2971C36.2933 41.6495 36.8468 42.0242 37.5193 42.3543C37.6806 42.4238 37.8543 42.4958 38.0578 42.5702C38.0578 42.5702 38.9934 42.8655 39.9811 43.3271C40.13 43.3743 40.2243 43.4041 40.2243 43.4041C41.3312 43.8259 41.7977 44.4662 41.7977 44.4662C42.8326 45.9999 43.2892 48.7174 43.4878 50.5166C52.1439 47.5262 52 35.0234 52 35.0234Z" fill="#090509"/>
</g>
<defs>
<clipPath id="clip0_15_2813">
<rect width="40" height="40" fill="white" transform="translate(12 12.0005)"/>
</clipPath>
</defs>
</svg>
