<svg width="40" height="40" viewBox="0 0 40 40" fill="none" xmlns="http://www.w3.org/2000/svg">
<g clip-path="url(#clip0_15_2820)">
<path d="M28.266 0.177002C28.1147 0.0173951 27.9074 -0.078125 27.6923 -0.078125H14.8239C12.7045 -0.078125 10.9354 1.47553 10.5847 3.49946C8.80006 3.81043 7.39747 5.22065 7.0868 6.99769C5.0232 7.3163 3.4375 9.10921 3.4375 11.2604V35.5951C3.4375 37.9697 5.35767 39.9219 7.73225 39.9219H25.1984C27.3178 39.9219 29.079 38.3759 29.4376 36.352C31.2623 36.0734 32.7124 34.639 33.0231 32.8223C35.047 32.4717 36.5848 30.7029 36.5848 28.5752V9.26057C36.5848 9.05336 36.5131 8.85408 36.3697 8.70271L28.266 0.177002ZM28.4574 2.73468L33.9396 8.44789H30.4017C29.3497 8.44789 28.4574 7.60316 28.4574 6.55122V2.73468ZM25.1984 38.3283H7.73225C6.23414 38.3283 5.03113 37.0933 5.03113 35.5951V11.2607C5.03113 10.0174 5.82795 8.96577 7.02302 8.64717V32.0893C7.02302 34.4639 8.94349 36.4161 11.3178 36.4161H27.7881C27.4454 37.5315 26.4176 38.3283 25.1984 38.3283ZM28.7842 34.8224H11.3178C9.82789 34.8224 8.61665 33.5874 8.61665 32.0893V7.75453C8.61665 6.53535 9.41346 5.50752 10.5289 5.1648V28.5834C10.5289 30.9577 12.4494 32.9099 14.8239 32.9099H31.3736C31.0312 34.0256 30.0031 34.8224 28.7842 34.8224ZM32.2901 31.3163H14.8239C13.3338 31.3163 12.1228 30.0812 12.1228 28.5831V4.24866C12.1228 2.75849 13.3258 1.51551 14.8239 1.51551H26.8637V6.55122C26.8637 8.48756 28.4653 10.0415 30.4017 10.0415H34.9912V28.5831C34.9912 30.0812 33.7882 31.3163 32.2901 31.3163Z" fill="#EFE8E8"/>
<path d="M30.1155 26.2168H16.9999C16.5617 26.2168 16.2031 26.5754 16.2031 27.0136C16.2031 27.4518 16.5617 27.8104 16.9999 27.8104H30.1234C30.5617 27.8104 30.9202 27.4518 30.9202 27.0136C30.9202 26.5754 30.5617 26.2168 30.1155 26.2168Z" fill="#EFE8E8"/>
<path d="M22.9746 22.9575C23.1262 23.1168 23.3331 23.2123 23.5562 23.2123C23.7796 23.2123 23.9865 23.1168 24.1379 22.9575L28.8074 17.9456C29.1101 17.6267 29.0863 17.1167 28.7674 16.8219C28.4488 16.5271 27.923 16.543 27.6203 16.8619L24.3134 20.3916V11.6904C24.3134 11.2521 23.9548 10.8936 23.5166 10.8936C23.0783 10.8936 22.7197 11.2521 22.7197 11.6904V20.3919L19.4528 16.8619C19.1501 16.5433 18.656 16.5192 18.3371 16.8219C18.0185 17.1249 18.0026 17.627 18.3054 17.9456L22.9746 22.9575Z" fill="#EFE8E8"/>
</g>
<defs>
<clipPath id="clip0_15_2820">
<rect width="40" height="40" fill="white"/>
</clipPath>
</defs>
</svg>
