<svg width="40" height="40" viewBox="0 0 40 40" fill="none" xmlns="http://www.w3.org/2000/svg">
<g clip-path="url(#clip0_4_1118)">
<path d="M16.9927 18.5547H2.14893C1.28589 18.5547 0.586426 17.8552 0.586426 16.9922V2.14844C0.586426 1.2854 1.28589 0.585938 2.14893 0.585938H16.9927C17.8557 0.585938 18.5552 1.2854 18.5552 2.14844V16.9922C18.5552 17.8552 17.8557 18.5547 16.9927 18.5547Z" fill="white"/>
<path d="M16.9927 0.585938H14.6489C15.512 0.585938 16.2114 1.2854 16.2114 2.14844V16.9922C16.2114 17.8552 15.512 18.5547 14.6489 18.5547H16.9927C17.8557 18.5547 18.5552 17.8552 18.5552 16.9922V2.14844C18.5552 1.2854 17.8557 0.585938 16.9927 0.585938Z" fill="#E2EBF9"/>
<path d="M37.8521 39.4141H23.0083C22.1453 39.4141 21.4458 38.7146 21.4458 37.8516V23.0078C21.4458 22.1448 22.1453 21.4453 23.0083 21.4453H37.8521C38.7151 21.4453 39.4146 22.1448 39.4146 23.0078V37.8516C39.4146 38.7146 38.7151 39.4141 37.8521 39.4141Z" fill="white"/>
<path d="M37.8521 21.4453H35.5083C36.3713 21.4453 37.0708 22.1448 37.0708 23.0078V37.8516C37.0708 38.7146 36.3713 39.4141 35.5083 39.4141H37.8521C38.7151 39.4141 39.4146 38.7146 39.4146 37.8516V23.0078C39.4146 22.1448 38.7151 21.4453 37.8521 21.4453Z" fill="#E2EBF9"/>
<path d="M17.0021 28.0859V30.4297H8.39893V18.5547H10.7427V28.0859H17.0021Z" fill="#AAB2B9"/>
<path d="M22.8612 11.9141V9.57031H31.4644V21.4453H29.1207V11.9141H22.8612Z" fill="#AAB2B9"/>
<path d="M9.31177 3.41705L6.02655 8.28949C5.88647 8.49701 6.03509 8.77655 6.28564 8.77655H12.8561C13.1066 8.77655 13.2552 8.49701 13.1152 8.28949L9.82995 3.41705C9.70605 3.23334 9.43567 3.23334 9.31177 3.41705Z" fill="#FFC943"/>
<path d="M29.7637 29.9976L27.3388 27.5726C26.9707 27.2046 26.9707 26.6077 27.3388 26.2396L29.7637 23.8147C30.1317 23.4467 30.7287 23.4467 31.0967 23.8147L33.5216 26.2396C33.8897 26.6077 33.8897 27.2046 33.5216 27.5726L31.0967 29.9976C30.7287 30.3656 30.1317 30.3656 29.7637 29.9976Z" fill="#5DE1C0"/>
<path d="M19.6469 29.5377L16.7693 31.6025C16.5627 31.7508 16.2747 31.6031 16.2747 31.3486V27.2192C16.2747 26.9647 16.5627 26.817 16.7693 26.9653L19.6469 29.0298C19.8205 29.1547 19.8205 29.4131 19.6469 29.5377Z" fill="#FF914D"/>
<path d="M20.2165 10.4623L23.094 8.39752C23.3006 8.24921 23.5887 8.39691 23.5887 8.65143V12.7808C23.5887 13.0353 23.3006 13.183 23.094 13.0347L20.2165 10.9702C20.0429 10.8453 20.0429 10.5869 20.2165 10.4623Z" fill="#FF914D"/>
<path d="M16.9927 19.1406H2.14893C0.964233 19.1406 0.000488281 18.1769 0.000488281 16.9922V2.14844C0.000488281 0.963745 0.964233 0 2.14893 0H16.9927C18.1774 0 19.1411 0.963745 19.1411 2.14844V2.51953C19.1411 2.84332 18.8787 3.10547 18.5552 3.10547C18.2317 3.10547 17.9692 2.84332 17.9692 2.51953V2.14844C17.9692 1.6098 17.5313 1.17188 16.9927 1.17188H2.14893C1.61029 1.17188 1.17236 1.6098 1.17236 2.14844V16.9922C1.17236 17.5308 1.61029 17.9688 2.14893 17.9688H16.9927C17.5313 17.9688 17.9692 17.5308 17.9692 16.9922V4.98047C17.9692 4.65668 18.2317 4.39453 18.5552 4.39453C18.8787 4.39453 19.1411 4.65668 19.1411 4.98047V16.9922C19.1411 18.1769 18.1774 19.1406 16.9927 19.1406Z" fill="#434C54"/>
<path d="M37.8521 40H23.0083C21.8236 40 20.8599 39.0363 20.8599 37.8516V37.5C20.8599 37.1762 21.122 36.9141 21.4458 36.9141C21.7696 36.9141 22.0317 37.1762 22.0317 37.5V37.8516C22.0317 38.3902 22.4697 38.8281 23.0083 38.8281H37.8521C38.3907 38.8281 38.8286 38.3902 38.8286 37.8516V23.0078C38.8286 22.4692 38.3907 22.0312 37.8521 22.0312H23.0083C22.4697 22.0312 22.0317 22.4692 22.0317 23.0078V35C22.0317 35.3238 21.7696 35.5859 21.4458 35.5859C21.122 35.5859 20.8599 35.3238 20.8599 35V23.0078C20.8599 21.8231 21.8236 20.8594 23.0083 20.8594H37.8521C39.0367 20.8594 40.0005 21.8231 40.0005 23.0078V37.8516C40.0005 39.0363 39.0367 40 37.8521 40Z" fill="#434C54"/>
<path d="M16.5878 32.2476C16.4477 32.2476 16.307 32.2147 16.177 32.1478C15.8758 31.9934 15.6887 31.687 15.6887 31.3486V27.2192C15.6887 26.8808 15.8758 26.5744 16.177 26.42C16.4782 26.2656 16.8362 26.2921 17.1111 26.4896L19.9883 28.5541C20.223 28.7225 20.3631 28.9954 20.3631 29.2844C20.3631 29.5728 20.223 29.8459 19.9883 30.014L17.1111 32.0789C16.9549 32.1906 16.7721 32.2476 16.5878 32.2476ZM16.8609 27.7521V30.8157L18.9956 29.2841L16.8609 27.7521Z" fill="#434C54"/>
<path d="M23.2756 13.6798C23.0916 13.6798 22.9084 13.623 22.7522 13.5107L19.875 11.4462C19.6403 11.2778 19.5002 11.0046 19.5002 10.7159C19.5002 10.4272 19.6403 10.1544 19.875 9.98627L22.7522 7.92145C23.0272 7.7243 23.3851 7.69745 23.6863 7.85217C23.9872 8.00659 24.1746 8.31299 24.1746 8.65143V12.7808C24.1746 13.1192 23.9872 13.4256 23.6863 13.58C23.5563 13.6469 23.4156 13.6798 23.2756 13.6798ZM20.8677 10.7162L23.0027 12.2479V9.18427L20.8677 10.7162Z" fill="#434C54"/>
<path d="M14.6489 11.908H4.49268C4.16919 11.908 3.90674 11.6455 3.90674 11.322C3.90674 10.9982 4.16919 10.7361 4.49268 10.7361H14.6489C14.9724 10.7361 15.2349 10.9982 15.2349 11.322C15.2349 11.6455 14.9724 11.908 14.6489 11.908Z" fill="#AAB2B9"/>
<path d="M14.6489 14.2517H4.49268C4.16919 14.2517 3.90674 13.9893 3.90674 13.6658C3.90674 13.342 4.16919 13.0798 4.49268 13.0798H14.6489C14.9724 13.0798 15.2349 13.342 15.2349 13.6658C15.2349 13.9893 14.9724 14.2517 14.6489 14.2517Z" fill="#AAB2B9"/>
<path d="M14.6489 16.5955H4.49268C4.16919 16.5955 3.90674 16.333 3.90674 16.0095C3.90674 15.6857 4.16919 15.4236 4.49268 15.4236H14.6489C14.9724 15.4236 15.2349 15.6857 15.2349 16.0095C15.2349 16.333 14.9724 16.5955 14.6489 16.5955Z" fill="#AAB2B9"/>
<path d="M35.5083 32.8125H25.3521C25.0283 32.8125 24.7661 32.5504 24.7661 32.2266C24.7661 31.9028 25.0283 31.6406 25.3521 31.6406H35.5083C35.8321 31.6406 36.0942 31.9028 36.0942 32.2266C36.0942 32.5504 35.8321 32.8125 35.5083 32.8125Z" fill="#AAB2B9"/>
<path d="M35.5083 35.1562H25.3521C25.0283 35.1562 24.7661 34.8941 24.7661 34.5703C24.7661 34.2465 25.0283 33.9844 25.3521 33.9844H35.5083C35.8321 33.9844 36.0942 34.2465 36.0942 34.5703C36.0942 34.8941 35.8321 35.1562 35.5083 35.1562Z" fill="#AAB2B9"/>
<path d="M35.5083 37.5H25.3521C25.0283 37.5 24.7661 37.2379 24.7661 36.9141C24.7661 36.5903 25.0283 36.3281 25.3521 36.3281H35.5083C35.8321 36.3281 36.0942 36.5903 36.0942 36.9141C36.0942 37.2379 35.8321 37.5 35.5083 37.5Z" fill="#AAB2B9"/>
</g>
<defs>
<clipPath id="clip0_4_1118">
<rect width="40" height="40" fill="white" transform="translate(0.000488281)"/>
</clipPath>
</defs>
</svg>
