<svg width="40" height="40" viewBox="0 0 40 40" fill="none" xmlns="http://www.w3.org/2000/svg">
<g clip-path="url(#clip0_4_1145)">
<path d="M4.30345 14.4242C3.93981 14.4242 3.69739 14.1818 3.69739 13.8182V8.54545C3.69739 8.18182 3.93981 7.93939 4.30345 7.93939C4.66708 7.93939 4.90951 8.18182 4.90951 8.54545V13.8182C4.90951 14.1818 4.66708 14.4242 4.30345 14.4242Z" fill="white"/>
<path d="M4.30345 23.0909C3.93981 23.0909 3.69739 22.8485 3.69739 22.4848V17.4545C3.69739 17.0909 3.93981 16.8485 4.30345 16.8485C4.66708 16.8485 4.90951 17.0909 4.90951 17.4545V22.4848C4.90951 22.8485 4.66708 23.0909 4.30345 23.0909Z" fill="white"/>
<path d="M4.30345 31.8182C3.93981 31.8182 3.69739 31.5758 3.69739 31.2121V26.3636C3.69739 26 3.93981 25.7576 4.30345 25.7576C4.66708 25.7576 4.90951 26 4.90951 26.3636V31.2121C4.90951 31.5758 4.66708 31.8182 4.30345 31.8182Z" fill="white"/>
<path d="M31.0914 39.4545H6.97017C5.15199 39.4545 3.63684 37.9394 3.63684 36.1212V35.6364C3.63684 35.2727 3.87927 35.0303 4.2429 35.0303C4.60654 35.0303 4.84896 35.2727 4.84896 35.6364V36.1212C4.84896 37.3333 5.75805 38.2424 6.97017 38.2424H31.0914C32.3035 38.2424 33.2126 37.3333 33.2126 36.1212V3.93939C33.2126 2.72727 32.3035 1.81818 31.0914 1.81818H6.97017C5.81866 1.81818 4.90957 2.78788 4.90957 3.93939V4.84848C4.90957 5.21212 4.66714 5.45455 4.30351 5.45455C3.93987 5.45455 3.69745 5.21212 3.69745 4.84848V3.93939C3.69745 2.12121 5.15199 0.60606 6.97017 0.60606H31.0914C32.9096 0.60606 34.4247 2.12121 34.4247 3.93939V36.1212C34.4247 37.9394 32.9096 39.4545 31.0914 39.4545Z" fill="white"/>
<path d="M9.57615 39.3939C9.21252 39.3939 8.97009 39.1515 8.97009 38.7879V1.21212C8.97009 0.848484 9.21252 0.60606 9.57615 0.60606C9.93979 0.60606 10.1822 0.848484 10.1822 1.21212V38.7879C10.1822 39.1515 9.93979 39.3939 9.57615 39.3939Z" fill="white"/>
<path d="M5.33378 17.8788H3.09136C1.81863 17.8788 0.78833 16.8485 0.78833 15.5758V15.4545C0.78833 14.1818 1.81863 13.1515 3.09136 13.1515H5.27318C6.54591 13.1515 7.57621 14.1818 7.57621 15.4545V15.5758C7.57621 16.8485 6.60651 17.8788 5.33378 17.8788ZM3.09136 14.3636C2.4853 14.3636 2.00045 14.8485 2.00045 15.4545V15.5758C2.00045 16.1818 2.4853 16.6667 3.09136 16.6667H5.33378C5.93985 16.6667 6.36409 16.1818 6.36409 15.5758V15.4545C6.36409 14.8485 5.87924 14.3636 5.27318 14.3636H3.09136Z" fill="white"/>
<path d="M5.33378 26.7879H3.09136C1.81863 26.7879 0.78833 25.7576 0.78833 24.4849V24.3636C0.78833 23.0909 1.81863 22.0606 3.09136 22.0606H5.27318C6.54591 22.0606 7.57621 23.0909 7.57621 24.3636V24.4849C7.57621 25.7576 6.60651 26.7879 5.33378 26.7879ZM3.09136 23.2727C2.4853 23.2727 2.00045 23.7576 2.00045 24.3636V24.4849C2.00045 25.0909 2.4853 25.5758 3.09136 25.5758H5.33378C5.93985 25.5758 6.36409 25.0909 6.36409 24.4849V24.3636C6.36409 23.7576 5.87924 23.2727 5.27318 23.2727H3.09136Z" fill="white"/>
<path d="M5.33378 8.9697H3.09136C1.81863 8.9697 0.78833 7.93939 0.78833 6.66667V6.54545C0.848936 5.21212 1.87924 4.24242 3.09136 4.24242H5.27318C6.54591 4.24242 7.57621 5.27273 7.57621 6.54545V6.66667C7.57621 7.93939 6.60651 8.9697 5.33378 8.9697ZM3.09136 5.45455C2.54591 5.45455 2.06106 5.93939 2.00045 6.60606V6.66667C2.00045 7.27273 2.4853 7.75758 3.09136 7.75758H5.33378C5.93985 7.75758 6.36409 7.27273 6.36409 6.66667V6.54545C6.36409 5.93939 5.87924 5.45455 5.27318 5.45455H3.09136Z" fill="white"/>
<path d="M5.33378 35.7576H3.09136C1.81863 35.7576 0.78833 34.7273 0.78833 33.4545V33.3333C0.78833 32.0606 1.81863 31.0303 3.09136 31.0303H5.27318C6.54591 31.0303 7.57621 32.0606 7.57621 33.3333V33.4545C7.57621 34.7273 6.54591 35.7576 5.33378 35.7576ZM3.09136 32.2424C2.4853 32.2424 2.00045 32.7273 2.00045 33.3333V33.4545C2.00045 34.0606 2.4853 34.5455 3.09136 34.5455H5.33378C5.87924 34.5455 6.36409 34.0606 6.36409 33.4545V33.3333C6.36409 32.7273 5.87924 32.2424 5.27318 32.2424H3.09136Z" fill="white"/>
<path d="M36.1217 10.7879H34.0005C33.6368 10.7879 33.3944 10.5455 33.3944 10.1818V6.36364C33.3944 6 33.6368 5.75758 34.0005 5.75758H36.1217C37.0308 5.75758 37.8187 6.54545 37.8187 7.45455V9.09091C37.8187 10 37.0308 10.7879 36.1217 10.7879ZM34.6065 9.57576H36.1217C36.3641 9.57576 36.6065 9.33333 36.6065 9.09091V7.45455C36.6065 7.21212 36.3641 6.9697 36.1217 6.9697H34.6065V9.57576Z" fill="white"/>
<path d="M36.9096 21.8788H34.0005C33.6368 21.8788 33.3944 21.6364 33.3944 21.2727V17.4545C33.3944 17.0909 33.6368 16.8485 34.0005 16.8485H36.9096C37.8187 16.8485 38.6065 17.6364 38.6065 18.5455V20.1818C38.6065 21.0909 37.8187 21.8788 36.9096 21.8788ZM34.6065 20.6667H36.9096C37.152 20.6667 37.3944 20.4242 37.3944 20.1818V18.5455C37.3944 18.303 37.152 18.0606 36.9096 18.0606H34.6065V20.6667Z" fill="white"/>
<path d="M37.455 32.9697H33.9398C33.5762 32.9697 33.3337 32.7273 33.3337 32.3636V28.4848C33.3337 28.1212 33.5762 27.8788 33.9398 27.8788H37.455C38.364 27.8788 39.1519 28.6667 39.1519 29.5758V31.2121C39.1519 32.1818 38.364 32.9697 37.455 32.9697ZM34.5459 31.7576H37.455C37.6974 31.7576 37.9398 31.5151 37.9398 31.2121V29.5758C37.9398 29.3333 37.6974 29.0909 37.455 29.0909H34.5459V31.7576Z" fill="white"/>
<path d="M17.8186 14.9091C17.6368 14.9091 17.5156 14.8485 17.3944 14.7273L13.3338 10.6667C13.0914 10.4242 13.0914 10.0606 13.3338 9.81818L17.455 5.69697C17.6974 5.45455 18.0611 5.45455 18.3035 5.69697C18.5459 5.93939 18.5459 6.30303 18.3035 6.54546L14.6065 10.2424L18.2429 13.8788C18.4853 14.1212 18.4853 14.4848 18.2429 14.7273C18.1217 14.8485 18.0005 14.9091 17.8186 14.9091Z" fill="white"/>
<path d="M25.3338 14.9091C25.152 14.9091 25.0308 14.8485 24.9096 14.7273C24.6672 14.4848 24.6672 14.1212 24.9096 13.8788L28.9702 9.81818C29.2126 9.57575 29.5763 9.57575 29.8187 9.81818C30.0611 10.0606 30.0611 10.4242 29.8187 10.6667L25.7581 14.7273C25.6369 14.8485 25.5157 14.9091 25.3338 14.9091Z" fill="white"/>
<path d="M29.3944 10.8485C29.2126 10.8485 29.0914 10.7879 28.9701 10.6667L24.8489 6.54546C24.6065 6.30303 24.6065 5.93939 24.8489 5.69697C25.0914 5.45455 25.455 5.45455 25.6974 5.69697L29.8186 9.81818C30.0611 10.0606 30.0611 10.4242 29.8186 10.6667C29.6974 10.7879 29.5762 10.8485 29.3944 10.8485Z" fill="white"/>
<path d="M20.1823 16.2424C20.1217 16.2424 20.0611 16.2424 20.0611 16.2424C19.7581 16.1818 19.5156 15.8182 19.6369 15.5152L22.4247 4.66667C22.4853 4.36364 22.849 4.12121 23.152 4.24242C23.455 4.30303 23.6975 4.66667 23.5763 4.9697L20.7884 15.7576C20.7278 16.0606 20.4247 16.2424 20.1823 16.2424Z" fill="white"/>
<path d="M25.0913 20.1818H18.061C17.6974 20.1818 17.455 19.9394 17.455 19.5758C17.455 19.2121 17.6974 18.9697 18.061 18.9697H25.0913C25.455 18.9697 25.6974 19.2121 25.6974 19.5758C25.6974 19.9394 25.455 20.1818 25.0913 20.1818Z" fill="white"/>
<path d="M30.2429 24.0606H12.849C12.4853 24.0606 12.2429 23.8182 12.2429 23.4545C12.2429 23.0909 12.4853 22.8485 12.849 22.8485H30.2429C30.6066 22.8485 30.849 23.0909 30.849 23.4545C30.849 23.8182 30.6066 24.0606 30.2429 24.0606Z" fill="white"/>
<path d="M30.2429 27.9394H12.849C12.4853 27.9394 12.2429 27.697 12.2429 27.3333C12.2429 26.9697 12.4853 26.7273 12.849 26.7273H30.2429C30.6066 26.7273 30.849 26.9697 30.849 27.3333C30.849 27.697 30.6066 27.9394 30.2429 27.9394Z" fill="white"/>
<path d="M30.2429 36.4242H12.849C12.4853 36.4242 12.2429 36.1818 12.2429 35.8182V31.3939C12.2429 31.0303 12.4853 30.7879 12.849 30.7879H30.2429C30.6066 30.7879 30.849 31.0303 30.849 31.3939V35.8182C30.849 36.1818 30.6066 36.4242 30.2429 36.4242ZM13.455 35.2121H29.6369V32H13.455V35.2121Z" fill="white"/>
</g>
<defs>
<clipPath id="clip0_4_1145">
<rect width="40" height="40" fill="white" transform="translate(0.000488281)"/>
</clipPath>
</defs>
</svg>
