<svg width="40" height="40" viewBox="0 0 40 40" fill="none" xmlns="http://www.w3.org/2000/svg">
<path d="M31.2815 4.47063H8.71902C8.07544 4.47063 7.55371 4.99235 7.55371 5.63594V34.3641C7.55371 35.0076 8.07544 35.5294 8.71902 35.5294H31.2815C31.9251 35.5294 32.4468 35.0076 32.4468 34.3641V5.63594C32.4468 4.99235 31.9251 4.47063 31.2815 4.47063Z" fill="#F1F2F2"/>
<path d="M27.8562 20.2142H12.1432C12.0189 20.2142 11.8996 20.1648 11.8117 20.0769C11.7238 19.989 11.6744 19.8698 11.6744 19.7455C11.6744 19.6211 11.7238 19.5019 11.8117 19.414C11.8996 19.3261 12.0189 19.2767 12.1432 19.2767H27.8562C27.9805 19.2767 28.0997 19.3261 28.1876 19.414C28.2755 19.5019 28.3249 19.6211 28.3249 19.7455C28.3249 19.8698 28.2755 19.989 28.1876 20.0769C28.0997 20.1648 27.9805 20.2142 27.8562 20.2142Z" fill="#939598"/>
<path d="M27.8562 23.0448H12.1432C12.0189 23.0448 11.8996 22.9955 11.8117 22.9076C11.7238 22.8196 11.6744 22.7004 11.6744 22.5761C11.6744 22.4518 11.7238 22.3325 11.8117 22.2446C11.8996 22.1567 12.0189 22.1073 12.1432 22.1073H27.8562C27.9805 22.1073 28.0997 22.1567 28.1876 22.2446C28.2755 22.3325 28.3249 22.4518 28.3249 22.5761C28.3249 22.7004 28.2755 22.8196 28.1876 22.9076C28.0997 22.9955 27.9805 23.0448 27.8562 23.0448Z" fill="#939598"/>
<path d="M27.8562 25.875H12.1432C12.0189 25.875 11.8996 25.8256 11.8117 25.7377C11.7238 25.6498 11.6744 25.5306 11.6744 25.4062C11.6744 25.2819 11.7238 25.1627 11.8117 25.0748C11.8996 24.9869 12.0189 24.9375 12.1432 24.9375H27.8562C27.9805 24.9375 28.0997 24.9869 28.1876 25.0748C28.2755 25.1627 28.3249 25.2819 28.3249 25.4062C28.3249 25.5306 28.2755 25.6498 28.1876 25.7377C28.0997 25.8256 27.9805 25.875 27.8562 25.875Z" fill="#939598"/>
<path d="M31.2815 4.47063H8.71902C8.40996 4.47063 8.11356 4.5934 7.89502 4.81194C7.67648 5.03048 7.55371 5.32688 7.55371 5.63594V6.03313H29.719C30.0281 6.03313 30.3245 6.1559 30.543 6.37444C30.7616 6.59298 30.8843 6.88938 30.8843 7.19844V35.5294H31.2815C31.5906 35.5294 31.887 35.4066 32.1055 35.1881C32.3241 34.9695 32.4468 34.6731 32.4468 34.3641V5.63594C32.4468 5.32688 32.3241 5.03048 32.1055 4.81194C31.887 4.5934 31.5906 4.47063 31.2815 4.47063Z" fill="#E6E7E8"/>
<path d="M31.2815 4.47063H8.71903C8.46844 4.47065 8.22452 4.55143 8.02345 4.70099C7.82239 4.85056 7.67487 5.06094 7.60278 5.30094C7.71146 5.26833 7.82432 5.2518 7.93778 5.25188H30.5003C30.8093 5.25188 31.1057 5.37465 31.3243 5.59319C31.5428 5.81173 31.6656 6.10813 31.6656 6.41719V35.1453C31.6657 35.2588 31.6491 35.3716 31.6165 35.4803C31.8565 35.4082 32.0669 35.2607 32.2165 35.0596C32.366 34.8586 32.4468 34.6147 32.4468 34.3641V5.63594C32.4468 5.32688 32.3241 5.03048 32.1055 4.81194C31.887 4.5934 31.5906 4.47063 31.2815 4.47063Z" fill="#D1D3D4"/>
<path d="M12.694 34.5859C12.6322 34.5859 12.5718 34.5676 12.5204 34.5333C12.469 34.4989 12.429 34.4501 12.4053 34.393C12.3817 34.3359 12.3755 34.2731 12.3875 34.2125C12.3996 34.1519 12.4293 34.0962 12.473 34.0525C12.5168 34.0088 12.5724 33.979 12.6331 33.9669C12.6937 33.9549 12.7565 33.9611 12.8136 33.9847C12.8707 34.0084 12.9195 34.0484 12.9539 34.0998C12.9882 34.1512 13.0065 34.2116 13.0065 34.2734C13.0063 34.3562 12.9733 34.4356 12.9147 34.4941C12.8562 34.5527 12.7768 34.5857 12.694 34.5859ZM11.444 34.5859H9.06589C8.87698 34.5858 8.69585 34.5107 8.56226 34.3771C8.42868 34.2435 8.35356 34.0624 8.35339 33.8734V18.2922C8.35339 18.2093 8.38632 18.1298 8.44492 18.0712C8.50353 18.0126 8.58301 17.9797 8.66589 17.9797C8.74877 17.9797 8.82826 18.0126 8.88686 18.0712C8.94547 18.1298 8.97839 18.2093 8.97839 18.2922V33.8734C8.97837 33.8849 8.98062 33.8963 8.98501 33.9069C8.9894 33.9176 8.99585 33.9272 9.00398 33.9354C9.01211 33.9435 9.02176 33.9499 9.03238 33.9543C9.04301 33.9587 9.0544 33.961 9.06589 33.9609H11.444C11.5269 33.9609 11.6064 33.9939 11.665 34.0525C11.7236 34.1111 11.7565 34.1906 11.7565 34.2734C11.7565 34.3563 11.7236 34.4358 11.665 34.4944C11.6064 34.553 11.5269 34.5859 11.444 34.5859Z" fill="white"/>
<path d="M19.2245 6.51765H27.3784C27.4163 6.51765 27.4538 6.52512 27.4888 6.53962C27.5238 6.55413 27.5557 6.57538 27.5825 6.60218C27.6093 6.62898 27.6305 6.66079 27.645 6.69581C27.6595 6.73082 27.667 6.76835 27.667 6.80625V14.0222C27.667 14.0987 27.6366 14.1721 27.5825 14.2263C27.5283 14.2804 27.4549 14.3108 27.3784 14.3108H19.2245V6.51765Z" fill="#FFA91A"/>
<path d="M27.3785 12.8675H19.2245V14.3108H27.3785C27.4551 14.3108 27.5285 14.2804 27.5826 14.2263C27.6367 14.1721 27.6671 14.0987 27.6671 14.0222V12.5789C27.6671 12.6554 27.6367 12.7288 27.5826 12.783C27.5285 12.8371 27.4551 12.8675 27.3785 12.8675Z" fill="#EF7816"/>
<path d="M21.9942 11.4744L19.2245 14.3108V6.51766L21.9715 3.70437C21.9916 3.68385 22.0173 3.66976 22.0454 3.66391C22.0734 3.65806 22.1026 3.66072 22.1292 3.67153C22.1558 3.68234 22.1785 3.70083 22.1946 3.72463C22.2106 3.74843 22.2192 3.77647 22.2192 3.80516V10.9219C22.2192 11.1284 22.1384 11.3267 21.9942 11.4744Z" fill="#EF7816"/>
<path d="M13.7765 3.45078H21.9304C22.0069 3.45078 22.0803 3.48119 22.1345 3.53531C22.1886 3.58943 22.219 3.66284 22.219 3.73938V10.9553C22.219 11.0319 22.1886 11.1053 22.1345 11.1594C22.0803 11.2135 22.0069 11.2439 21.9304 11.2439H13.7765V3.45078Z" fill="#FFC91D"/>
<path d="M21.9306 9.80078H13.7765V11.2441H21.9306C22.0071 11.244 22.0805 11.2136 22.1346 11.1594C22.1887 11.1053 22.2191 11.0319 22.2191 10.9553V9.51218C22.2191 9.58872 22.1887 9.66213 22.1346 9.71625C22.0805 9.77037 22.0071 9.80078 21.9306 9.80078Z" fill="#FFA91A"/>
<path d="M13.0549 17.7381C12.8636 17.7381 12.68 17.6621 12.5447 17.5268C12.4094 17.3915 12.3334 17.2079 12.3334 17.0166V2.87344C12.3334 2.68207 12.4094 2.49853 12.5447 2.36322C12.68 2.2279 12.8636 2.15187 13.0549 2.15187C13.2463 2.15187 13.4298 2.2279 13.5652 2.36322C13.7005 2.49853 13.7765 2.68207 13.7765 2.87344V17.0166C13.7765 17.2079 13.7005 17.3915 13.5652 17.5268C13.4298 17.6621 13.2463 17.7381 13.0549 17.7381Z" fill="#808285"/>
<path d="M13.0549 2.15172C12.9278 2.15243 12.8033 2.187 12.6941 2.25187C12.8035 2.3147 12.8944 2.40522 12.9577 2.51433C13.0211 2.62343 13.0546 2.74728 13.0549 2.87344V17.0166C13.0546 17.1427 13.0211 17.2666 12.9577 17.3757C12.8944 17.4848 12.8035 17.5753 12.6941 17.6381C12.8033 17.7028 12.9277 17.7373 13.0546 17.7382C13.1816 17.739 13.3064 17.7061 13.4165 17.6429C13.5266 17.5797 13.6179 17.4884 13.6811 17.3784C13.7444 17.2683 13.7772 17.1435 13.7764 17.0166V2.87344C13.7764 2.68205 13.7004 2.4985 13.5651 2.36316C13.4298 2.22782 13.2463 2.15176 13.0549 2.15172Z" fill="#58595B"/>
<path d="M20.0002 36.9345C22.8359 36.9345 25.1346 34.6358 25.1346 31.8002C25.1346 28.9645 22.8359 26.6658 20.0002 26.6658C17.1646 26.6658 14.8658 28.9645 14.8658 31.8002C14.8658 34.6358 17.1646 36.9345 20.0002 36.9345Z" fill="#58595B"/>
<path d="M23.219 27.7998C24.0115 28.7864 24.4118 30.0308 24.3431 31.2943C24.2744 32.5579 23.7416 33.7516 22.8468 34.6464C21.952 35.5412 20.7583 36.074 19.4947 36.1427C18.2312 36.2114 16.9868 35.8111 16.0002 35.0186C16.452 35.5806 17.0171 36.0412 17.6588 36.3703C18.3004 36.6995 19.0041 36.8898 19.7242 36.9288C20.4443 36.9678 21.1645 36.8548 21.8379 36.597C22.5114 36.3391 23.123 35.9424 23.6329 35.4325C24.1428 34.9226 24.5395 34.311 24.7974 33.6375C25.0552 32.9641 25.1682 32.2438 25.1292 31.5238C25.0902 30.8037 24.8999 30.1 24.5708 29.4584C24.2416 28.8167 23.781 28.2516 23.219 27.7998Z" fill="#414042"/>
<path d="M19.4604 34.0781C19.3464 34.0783 19.2334 34.0559 19.128 34.0122C19.0226 33.9686 18.9268 33.9045 18.8462 33.8238L17.1353 32.1128C16.9724 31.9499 16.8808 31.7289 16.8809 31.4985C16.8809 31.268 16.9724 31.0471 17.1354 30.8841C17.2983 30.7212 17.5193 30.6297 17.7497 30.6297C17.9801 30.6297 18.2011 30.7213 18.364 30.8842L19.4604 31.9808L21.6365 29.8047C21.7995 29.6417 22.0204 29.5502 22.2509 29.5502C22.4813 29.5502 22.7023 29.6417 22.8652 29.8046C23.0281 29.9675 23.1197 30.1885 23.1197 30.4189C23.1197 30.6494 23.0282 30.8703 22.8653 31.0333L20.0748 33.8234C19.9942 33.9043 19.8985 33.9684 19.793 34.0121C19.6876 34.0558 19.5746 34.0782 19.4604 34.0781Z" fill="#FFA91A"/>
<path d="M22.8653 29.8044C22.8126 29.7516 22.7533 29.7058 22.689 29.6681C22.7857 29.834 22.8247 30.0271 22.8001 30.2175C22.7754 30.4079 22.6885 30.5847 22.5528 30.7205L19.7623 33.5109C19.5993 33.6738 19.3784 33.7653 19.148 33.7653C18.9176 33.7653 18.6966 33.6738 18.5337 33.5109L18.8462 33.8234C19.0091 33.9863 19.2301 34.0778 19.4605 34.0778C19.6909 34.0778 19.9118 33.9863 20.0748 33.8234L22.8653 31.033C23.0281 30.87 23.1196 30.6491 23.1196 30.4187C23.1196 30.1883 23.0281 29.9673 22.8653 29.8044Z" fill="#F79219"/>
<path d="M19.1479 31.668L18.364 30.8839L18.3625 30.8827L19.1479 31.668Z" fill="#F79219"/>
</svg>
