<svg width="40" height="40" viewBox="0 0 40 40" fill="none" xmlns="http://www.w3.org/2000/svg">
<path fill-rule="evenodd" clip-rule="evenodd" d="M33.1545 22.1525C34.9257 22.1525 36.3613 23.5875 36.3613 25.3412V34.1825C36.3613 35.9362 34.9088 37.3719 33.1545 37.3719H15.4738C13.7195 37.3719 12.267 35.9362 12.267 34.1825V25.3412C12.267 23.5875 13.7013 22.1525 15.4738 22.1525H33.1545Z" fill="#E1E6E9"/>
<path fill-rule="evenodd" clip-rule="evenodd" d="M6.82754 37.3713H33.1544C31.4 37.3713 29.9657 35.9356 29.9657 34.1819V25.3413V10.0163L22.595 2.62875H6.82754C5.07317 2.62875 3.63879 4.08125 3.63879 5.83563V34.1819C3.63879 35.9356 5.07317 37.3713 6.82754 37.3713Z" fill="#EBF0F3"/>
<path fill-rule="evenodd" clip-rule="evenodd" d="M22.5951 2.62875L29.9657 10.0162H25.3945C23.8538 10.0162 22.5951 8.74063 22.5951 7.19937V2.62875Z" fill="#E1E6E9"/>
<path fill-rule="evenodd" clip-rule="evenodd" d="M12.0713 18.8044C12.2669 18.8044 12.4607 18.8219 12.6388 18.8575C12.6388 18.7869 12.6388 18.715 12.6388 18.6444C12.6388 16.2881 14.5344 14.3925 16.8907 14.3925C19.2294 14.3925 21.125 16.2881 21.125 18.6444V18.8219C21.2482 18.8219 21.39 18.8044 21.5144 18.8044C23.41 18.8044 24.9338 20.3281 24.9338 22.2238C24.9338 24.1019 23.41 25.625 21.5144 25.625H12.0713C10.1938 25.625 8.67065 24.1013 8.67065 22.2238C8.67065 20.3275 10.1944 18.8044 12.0713 18.8044Z" fill="#6595CD"/>
<path d="M21.7294 18.185C21.4982 15.7106 19.4163 13.7681 16.8913 13.7681C14.3588 13.7681 12.2713 15.7081 12.0363 18.18C9.83315 18.1994 8.04565 20.0063 8.04565 22.2244C8.04565 24.445 9.8519 26.2506 12.0713 26.2506H21.5144C23.7444 26.2506 25.5588 24.4444 25.5588 22.2244C25.5594 20.065 23.86 18.2963 21.7294 18.185ZM21.515 25H12.0713C10.5407 25 9.29565 23.7544 9.29565 22.2238C9.29565 20.6831 10.5407 19.4294 12.0713 19.4294C12.2275 19.4294 13.32 19.4144 14.2594 20.5088L15.2688 19.7581C14.775 19.0944 14.0769 18.625 13.2769 18.3788C13.4144 16.5031 14.9807 15.0181 16.89 15.0181C18.77 15.0181 20.3163 16.4694 20.4832 18.315C19.4163 18.6075 18.4988 19.3175 17.9675 20.2925L19.0725 20.8944C20.1957 19.2975 21.465 19.4294 21.5144 19.4294C23.055 19.4294 24.3088 20.6831 24.3088 22.2238C24.3094 23.7544 23.0557 25 21.515 25Z" fill="black"/>
<path d="M33.1719 21.5275H30.6082V9.7575L22.8538 2.00375H6.84567C4.73254 2.00375 3.01379 3.72312 3.01379 5.83562V34.1819C3.01379 36.285 4.73254 37.9963 6.84567 37.9963H28.3338V36.7463H6.84567C5.42254 36.7463 4.26379 35.5956 4.26379 34.1819V5.83562C4.26379 4.41187 5.42254 3.25375 6.84567 3.25375H22.3363L29.3588 10.275V34.1819C29.3588 36.285 31.0694 37.9963 33.1725 37.9963C35.2757 37.9963 36.9869 36.2856 36.9869 34.1819V25.3413C36.9863 23.2388 35.2744 21.5275 33.1719 21.5275ZM35.7363 34.1819C35.7363 35.5956 34.5863 36.7463 33.1719 36.7463C31.7582 36.7463 30.6082 35.5956 30.6082 34.1819V22.7775H33.1719C34.5863 22.7775 35.7363 23.9275 35.7363 25.3413V34.1819Z" fill="black"/>
<path d="M27.4838 9.39125H25.4126C24.2245 9.39125 23.2201 8.3875 23.2201 7.19937V5.12875H21.9701V7.19937C21.9701 9.0975 23.5145 10.6412 25.4126 10.6412H27.4832L27.4838 9.39125Z" fill="black"/>
</svg>
