<svg width="40" height="40" viewBox="0 0 40 40" fill="none" xmlns="http://www.w3.org/2000/svg">
<g clip-path="url(#clip0_4_1140)">
<path d="M38.8667 11.2567L21.6846 17.8719C21.3632 17.9956 21.1508 18.3048 21.1508 18.6495V39.1661C21.184 40.0189 22.0425 40.0798 22.2835 39.9436L39.4657 33.3283C39.7872 33.2047 39.9996 32.8955 39.9996 32.5508V12.0343C40.0232 11.7051 39.6487 10.9978 38.8667 11.2567ZM38.3328 31.9788L22.8172 37.9523V19.2215L38.3328 13.2479V31.9788Z" fill="white"/>
<path d="M18.3158 17.8719L1.13327 11.2567C0.441375 11.0204 0.000488281 11.5772 0.000488281 12.0343V32.5509C0.000488281 32.8955 0.212891 33.2048 0.534352 33.3284L17.7169 39.9437C17.9436 40.0476 18.7728 40.0952 18.8497 39.1661V18.6495C18.8496 18.3048 18.6372 17.9956 18.3158 17.8719ZM17.1831 37.9523L1.66714 31.9788V13.248L17.1831 19.2216V37.9523Z" fill="white"/>
<path d="M38.8446 7.23336L20.3011 0.0566527C20.1074 -0.0182841 19.8934 -0.0182841 19.6997 0.0566527L1.15569 7.23336C0.292769 7.64886 0.623128 8.61373 1.15569 8.78769L19.6997 15.9644C19.979 16.0689 20.2042 16.0018 20.3011 15.9644L38.8446 8.78769C39.3115 8.63716 39.7929 7.73588 38.8446 7.23336ZM20.0004 14.2937L3.76509 8.01056L20.0004 1.72738L36.2353 8.01056L20.0004 14.2937Z" fill="white"/>
</g>
<defs>
<clipPath id="clip0_4_1140">
<rect width="40" height="40" fill="white" transform="translate(0.000488281)"/>
</clipPath>
</defs>
</svg>
