<svg width="40" height="40" viewBox="0 0 40 40" fill="none" xmlns="http://www.w3.org/2000/svg">
<g clip-path="url(#clip0_4_1187)">
<path d="M39.5759 7.1074C39.1335 6.47827 38.4664 6.13182 37.6974 6.13182L33.4701 6.13189L33.551 5.99242C34.5157 4.32948 34.3735 2.36021 33.1799 0.85313L32.6957 0.241634C32.5906 0.109033 32.4334 0.0283329 32.2645 0.0203721C32.094 0.0121772 31.9312 0.0778925 31.8142 0.199958L25.9158 6.35199C25.492 6.79412 25.2771 7.32874 25.2771 7.94109V17.6192L34.8876 17.6104C35.8433 17.6104 36.6592 17.0599 37.0169 16.1738C37.402 15.22 39.3747 10.5501 39.8583 9.20514C40.1185 8.48149 40.0182 7.73646 39.5759 7.1074Z" fill="#FFDECF"/>
<path d="M21.6189 39.9804L1.1707 39.9799C0.524161 39.9799 0 39.4558 0 38.8092V35.5069C0 32.3887 1.74021 29.6684 4.3024 28.2624C4.89938 27.9348 11.5094 32.7819 11.5094 32.7819C11.5094 32.7819 17.8738 27.9294 18.4537 28.2441C21.0342 29.6447 22.7896 32.3751 22.7896 35.5069V38.8096C22.7896 39.1202 22.6663 39.4179 22.4467 39.6374C22.2272 39.857 21.9295 39.9804 21.6189 39.9804Z" fill="#BEE75E"/>
<path d="M18.4536 28.2441C17.8737 27.9293 11.5093 32.7819 11.5093 32.7819C11.5093 32.7819 11.4692 32.7524 11.3948 32.6982V39.9802L21.6189 39.9804C21.9294 39.9804 22.2272 39.857 22.4466 39.6375C22.6662 39.4179 22.7896 39.1202 22.7896 38.8097V35.5069C22.7896 32.3751 21.0342 29.6447 18.4536 28.2441Z" fill="#00CB75"/>
<path fill-rule="evenodd" clip-rule="evenodd" d="M11.3948 34.1443L17.3632 27.751C16.4735 27.4241 15.5126 27.2455 14.5107 27.2455H8.27884C7.27696 27.2455 6.31605 27.4241 5.42639 27.751L11.3948 34.1443Z" fill="#7DD5F4"/>
<path fill-rule="evenodd" clip-rule="evenodd" d="M11.3948 34.1443L17.3632 27.751C16.4735 27.4241 15.5126 27.2455 14.5107 27.2455H11.3948V34.1443Z" fill="#4793FF"/>
<path d="M10.539 34.9432C10.7604 35.1804 11.0703 35.315 11.3948 35.315C11.7192 35.315 12.0292 35.1804 12.2506 34.9432L18.487 28.2626C17.7495 27.8579 16.9438 27.5623 16.0919 27.3973L11.3948 32.4288L6.69779 27.3973C5.84591 27.5623 5.04015 27.8579 4.30261 28.2626L10.539 34.9432Z" fill="#00429D"/>
<path d="M16.0919 27.3973L11.3948 32.4288V35.3151C11.7192 35.3151 12.0291 35.1805 12.2506 34.9433L18.487 28.2627C17.7494 27.8579 16.9437 27.5623 16.0919 27.3973Z" fill="#00347B"/>
<path d="M13.0239 29.4386H9.76575C6.00156 29.4386 2.93909 26.3762 2.93909 22.6119V17.2991C2.93909 13.5349 19.8505 13.5349 19.8505 17.2991V22.6119C19.8505 26.3762 16.7882 29.4386 13.0239 29.4386Z" fill="#FFE4C1"/>
<path d="M11.3948 14.476V29.4387H13.0238C16.788 29.4387 19.8505 26.3763 19.8505 22.612V17.2992C19.8505 15.417 15.6226 14.476 11.3948 14.476Z" fill="#FDD1A3"/>
<path d="M2.93909 19.5016C3.68272 19.696 4.44976 19.7941 5.23218 19.7941C7.5831 19.7941 9.7236 18.898 11.3948 17.3086C13.066 18.8981 15.3372 19.7941 17.688 19.7941C18.4217 19.7941 19.1459 19.7058 19.8505 19.533V17.2992C19.8505 13.535 16.7882 10.4725 13.0239 10.4725H9.76575C6.00156 10.4725 2.93909 13.5349 2.93909 17.2992V19.5016Z" fill="#00429D"/>
<path d="M26.946 17.6192H22.0074C21.3608 17.6192 20.8367 17.095 20.8367 16.4485V6.45852C20.8367 5.81198 21.3608 5.28782 22.0074 5.28782H26.946V17.6192Z" fill="#FF8856"/>
<path d="M13.0238 10.4725H11.3948V17.3086C13.066 18.8981 15.3371 19.7941 17.688 19.7941C18.4217 19.7941 19.1459 19.7058 19.8505 19.533V17.2992C19.8505 13.5349 16.7881 10.4725 13.0238 10.4725Z" fill="#00347B"/>
<path d="M39.5758 7.10732C39.1334 6.47819 38.4663 6.13174 37.6973 6.13174L33.4701 6.13182L33.5509 5.99235C34.5157 4.32941 34.3735 2.36013 33.1799 0.853052L32.6956 0.241556C32.5906 0.108955 32.4334 0.0282549 32.2644 0.0202942V17.6128L34.8876 17.6104C35.8433 17.6104 36.6592 17.0599 37.0169 16.1738C37.4021 15.22 39.3747 10.5501 39.8583 9.20514C40.1185 8.48141 40.0182 7.73645 39.5758 7.10732Z" fill="#FFCDBE"/>
</g>
<defs>
<clipPath id="clip0_4_1187">
<rect width="40" height="40" fill="white"/>
</clipPath>
</defs>
</svg>
