<svg width="64" height="64" viewBox="0 0 64 64" fill="none" xmlns="http://www.w3.org/2000/svg">
<rect width="64" height="64" rx="32" fill="#E3E2FD"/>
<g clip-path="url(#clip0_15_2764)">
<path d="M19.0633 28.0502L17.3218 26.9548C16.0426 26.1503 15.1656 24.8341 14.9158 23.3437C14.4444 20.5306 16.2922 17.8563 19.0614 17.2791V14.4134C18.983 14.4134 18.9038 14.4183 18.824 14.4317L18.7982 14.4361C14.3697 15.1781 11.3706 19.3849 12.1128 23.8134C12.4965 26.103 13.8436 28.1248 15.8087 29.3608L19.6542 31.7794C19.2832 30.5997 19.0777 29.3475 19.0633 28.0502Z" fill="black"/>
<path d="M45.2029 14.4362L45.176 14.4316C45.0961 14.4183 45.0169 14.4134 44.9386 14.4134V17.2791C47.7072 17.8556 49.5556 20.5303 49.0842 23.3437C48.8343 24.8341 47.9575 26.1503 46.6782 26.955L44.9367 28.0503C44.9224 29.3476 44.7168 30.5998 44.3458 31.7795L48.1913 29.3609C50.1564 28.125 51.5034 26.103 51.8872 23.8135C52.6293 19.3849 49.6303 15.1783 45.2029 14.4362Z" fill="black"/>
<path d="M20.9562 12.6469V27.9052C20.9562 33.9948 25.9103 38.949 31.9999 38.949C38.0895 38.949 43.0437 33.9949 43.0437 27.9052V12.6469H20.9562ZM38.0356 24.5223L36.1417 26.3683C35.9013 26.6026 35.7916 26.9402 35.8484 27.2711L36.2956 29.8777C36.4384 30.7109 35.5639 31.3463 34.8156 30.9529L32.4747 29.7222C32.1776 29.5659 31.8226 29.5659 31.5254 29.7222L29.1845 30.9529C28.4362 31.3463 27.5616 30.7109 27.7045 29.8777L28.1516 27.2711C28.2084 26.9402 28.0987 26.6026 27.8584 26.3683L25.9645 24.5223C25.3591 23.9321 25.6932 22.904 26.5298 22.7825L29.147 22.4022C29.4793 22.3539 29.7664 22.1452 29.915 21.8441L31.0854 19.4725C31.4595 18.7144 32.5406 18.7144 32.9148 19.4725L34.0852 21.8441C34.2337 22.1452 34.5209 22.3538 34.8531 22.4022L37.4703 22.7825C38.3069 22.9041 38.6409 23.9323 38.0356 24.5223Z" fill="black"/>
<path d="M36.0128 44.8493C35.8181 44.8291 35.6205 44.8185 35.4204 44.8185H34.118V40.8439H29.8818V44.8185H28.5794C28.3793 44.8185 28.1817 44.8291 27.987 44.8493C25.1257 45.1456 22.8944 47.5639 22.8944 50.5034V51.353H41.1053V50.5034C41.1053 47.5639 38.874 45.1456 36.0128 44.8493Z" fill="black"/>
</g>
<defs>
<clipPath id="clip0_15_2764">
<rect width="40" height="40" fill="white" transform="translate(12 12)"/>
</clipPath>
</defs>
</svg>
